<?xml version="1.0" encoding="utf-8"?>
<!-- Generator: Adobe Illustrator 15.1.0, SVG Export Plug-In . SVG Version: 6.00 Build 0)  -->
<!DOCTYPE svg PUBLIC "-//W3C//DTD SVG 1.1//EN" "http://www.w3.org/Graphics/SVG/1.1/DTD/svg11.dtd">
<svg version="1.1" id="Layer_1" xmlns="http://www.w3.org/2000/svg" xmlns:xlink="http://www.w3.org/1999/xlink" x="0px" y="0px"
	 width="174.745px" height="400px" viewBox="0 0 174.745 400" enable-background="new 0 0 174.745 400" xml:space="preserve">
<g>
	<ellipse fill="#D8C191" cx="72.979" cy="366.536" rx="35.229" ry="8.115"/>
	<ellipse fill="#D8C191" cx="131.227" cy="366.218" rx="35.229" ry="8.115"/>
	<g>
		<path fill="#FEC67A" d="M122.678,227.226c-0.519-2.035-0.021-6.021-1.535-7.461c-0.351-0.332-0.751-0.582-1.183-0.775
			c-0.022-0.033-0.056-0.059-0.069-0.096c-1.373-3.824-0.59-17.59,0.033-26.937c0.281-4.198-2.021-10.162-3.08-14.242
			c-0.714-2.751,0.693-8.012-2.942-8.431c-4.41-0.509-6.94,4.821-7.638,7.975c-1.305,5.892-0.676,6.023,0.13,14.192
			c0.642,6.503,9.116,21.996,5.12,28.273c-0.001,0.002-1.875,2.303-2.169,2.688c-0.479,0.631-0.72,2.041-0.756,3.662
			c-0.033,1.496,1.482,1.5,1.771,2.9c0.311,1.518-0.021,4.623,0.598,4.93c2.109,1.049,2.049-0.408,3.803-0.562
			c3.449-0.307,4.711,0.393,6.892-2.168C122.994,229.597,122.932,228.22,122.678,227.226z"/>
		<path fill="#FFFFFF" d="M120.289,182.532c-0.554-2.653-2.348-8.235-2.65-11.614c-1.128-12.583-0.937-25.1-1.558-37.733
			c-0.216-4.391-0.755-8.752-1.045-13.135c-0.228-3.449-0.409-6.888-1.978-10.033c-0.171-0.343-0.542-0.296-0.755-0.085
			c-0.171-0.029-0.345,0.037-0.437,0.252c-1.091,2.551-0.957,5.369-1.606,8.038c-0.943,3.877-2.215,7.667-3.13,11.555
			c-1.752,7.435-2.324,14.97-2.547,22.585c-0.236,8.091-0.036,16.192,0.221,24.28c0.112,3.544,0.448,7.146,0.295,10.689
			c-0.099,2.282-0.571,4.827,0.576,6.915c0.778,1.412,2.767,1.365,4.108,1.143c2.896-0.48,5.827-0.941,8.604-1.92
			c1.004-0.353,3.729-1.05,3.847-2.201C122.588,187.811,121.426,187.981,120.289,182.532z"/>
		<path fill="#D8E0F2" d="M122.59,184.576c0,0-0.044,4.001-0.062,5.561c-0.013,1.073,0.085,3.234-0.048,4.296
			c-0.086,0.686-1.614,1.404-9.827,1.861c-7.556,0.42-7.867,1.301-9.897,0.08c-3.152-1.895-4.768-9.901-2.052-11.878
			c2.082-1.518,8.872-0.241,11.829-0.322C115.05,184.104,120.718,183.176,122.59,184.576z"/>
		<path fill="#A0B2D5" d="M113.2,166.475c-0.807,0.016-1.69,0.123-2.474,0.309c-0.692,0.166-1.733,0.621-1.971,1.363
			c-0.232,0.725,0.927,1.112,1.09,0.399c0.103-0.45,1.029-0.756,1.413-0.986c0.618-0.371,1.244-0.722,1.952-0.892
			C113.311,166.644,113.318,166.473,113.2,166.475z M114.425,163.806c-2.571,0.227-4.671-0.419-7.176-0.943
			c-0.162-0.035-0.305,0.081-0.141,0.153c1.871,0.811,5.593,2.058,7.745,1.553C115.5,164.418,115.174,163.741,114.425,163.806z
			 M112.296,161.125c-1.864-0.385-3.212-1.285-4.87-2.186c-0.106-0.06-0.232-0.008-0.132,0.078c1.15,0.969,3.516,2.639,5.144,2.738
			C112.926,161.787,112.84,161.239,112.296,161.125z"/>
	</g>
	<path fill="#A0B2D5" d="M90.922,99.351c-0.582-1.352-3.015-1.822-4.227-2.139c-2.479-0.646-5.006-1.293-7.551-1.584
		c-2.678-0.306-6.062-1.254-8.521,0.141c-2.255-0.068-0.102,4.365,1.397,4.926c2.831,1.06,6.164,0.869,9.136,1.004
		c2.939,0.134,5.912,0.402,8.836-0.078C91.18,101.425,91.309,100.25,90.922,99.351z"/>
	<path fill="#FCBD73" d="M108.033,107.074c-5.57-1.766-9.205-1.904-15.421-4.474c-5.25-2.375-4.721-10.456-4.224-17.666
		c-2.169-3.149-14.507-0.259-14.507-0.259s1.735,13.256-5.908,16.312c-0.203,0.082-0.363,0.201-0.537,0.257
		c-3.972,1.261-8.613,1.021-13.482,1.643c-12.453,1.593-9.078,1.858-6.605,21.505c0.408,3.243,4.703,19.247,6.883,33.597
		c1.555,10.239,1.078,31.635,1.076,34.986c-0.006,9.625,3.91,21.344,5.946,22.938c1.176,0.92,12.37-0.914,22.829-0.291
		c7.654,0.457,14.877,4.059,17.674,1.871c6.619-5.178,6.267-11.688,6.694-20.863c0.303-6.502,1.637-37.594,3.063-56.28
		c0.562-7.363,1.18-13.035,1.18-14.162C112.694,110.238,115.48,109.433,108.033,107.074z"/>
	<g>
		<g>
			<path fill="#F68946" d="M62.295,55.787c-0.002-2.042-0.069-4.009-0.334-6.01c-0.051-0.389-0.152-0.691-0.277-0.947
				c-0.014-0.17-0.021-0.338-0.037-0.506c-0.043-0.465-0.172-0.796-0.328-1.07c0.047-0.62-0.116-1.307-0.576-1.603
				c-0.826-0.533-1.697-0.739-2.545-0.683c-0.073-0.009-0.148-0.01-0.223-0.016c-0.132-0.049-0.264-0.058-0.395-0.029
				c-1.107-0.002-2.188,0.367-3.053,1.482c-1.247,1.608-1.404,4.333-0.959,6.682c0.018,0.093,0.043,0.186,0.062,0.278
				c0.132,1.206,0.451,2.345,0.996,3.245c0.137,0.227,0.285,0.42,0.438,0.598c1.501,2.67,3.742,4.252,5.75,2.821
				c0.634-0.159,1.179-0.925,1.179-2.294c0-0.191-0.004-0.381-0.004-0.57C62.168,56.792,62.295,56.343,62.295,55.787z"/>
			<path fill="#B94426" d="M60.597,54.53c-0.001-0.802-0.026-1.574-0.132-2.36c-0.02-0.152-0.059-0.271-0.107-0.372
				c-0.007-0.066-0.01-0.132-0.016-0.198c-0.016-0.183-0.066-0.312-0.129-0.421c0.02-0.243-0.045-0.513-0.225-0.629
				c-0.326-0.21-0.668-0.29-1-0.268c-0.029-0.004-0.059-0.005-0.088-0.007c-0.053-0.02-0.104-0.021-0.154-0.011
				c-0.436-0.001-0.859,0.144-1.199,0.582c-0.49,0.631-0.552,1.701-0.377,2.623c0.008,0.036,0.018,0.073,0.025,0.109
				c0.052,0.474,0.177,0.921,0.391,1.274c0.054,0.09,0.112,0.164,0.172,0.234c0.59,1.049,1.47,1.67,2.258,1.108
				c0.25-0.063,0.463-0.363,0.463-0.901c0-0.075-0.002-0.149-0.002-0.225C60.547,54.923,60.597,54.749,60.597,54.53z"/>
		</g>
		<g>
			<path fill="#F68946" d="M105.488,58.098c0.284-1.75,0.613-3.427,1.117-5.104c0.097-0.324,0.227-0.57,0.368-0.772
				c0.036-0.144,0.065-0.286,0.104-0.429c0.101-0.392,0.256-0.658,0.428-0.871c0.046-0.538,0.28-1.103,0.716-1.293
				c0.78-0.344,1.555-0.398,2.272-0.232c0.067,0.002,0.129,0.012,0.195,0.017c0.118-0.022,0.233-0.013,0.341,0.03
				c0.95,0.152,1.822,0.615,2.409,1.691c0.848,1.551,0.604,3.906-0.103,5.857c-0.025,0.076-0.062,0.152-0.091,0.229
				c-0.279,1.015-0.711,1.946-1.301,2.642c-0.148,0.176-0.304,0.32-0.458,0.451c-1.655,2.08-3.796,3.127-5.317,1.623
				c-0.521-0.225-0.881-0.955-0.691-2.129c0.026-0.164,0.055-0.325,0.081-0.488C105.458,58.975,105.41,58.576,105.488,58.098z"/>
			<path fill="#B94426" d="M108.057,56.844c0.121-0.744,0.259-1.458,0.475-2.171c0.042-0.139,0.095-0.242,0.157-0.328
				c0.015-0.062,0.026-0.123,0.043-0.184c0.043-0.166,0.11-0.279,0.183-0.369c0.019-0.23,0.121-0.47,0.304-0.551
				c0.334-0.146,0.662-0.169,0.967-0.099c0.028,0.001,0.055,0.005,0.083,0.007c0.052-0.01,0.099-0.005,0.146,0.014
				c0.403,0.064,0.775,0.261,1.023,0.719c0.36,0.66,0.257,1.661-0.043,2.492c-0.011,0.031-0.026,0.064-0.039,0.098
				c-0.119,0.431-0.302,0.828-0.554,1.123c-0.062,0.074-0.129,0.136-0.194,0.191c-0.705,0.885-1.614,1.33-2.262,0.69
				c-0.221-0.095-0.374-0.406-0.294-0.905c0.011-0.07,0.023-0.139,0.035-0.209C108.044,57.217,108.023,57.046,108.057,56.844z"/>
		</g>
		<path fill="#FCBD73" d="M108.649,57.827c2.35-3.559,1.576-15.862,1.199-18.937c-2.022-16.56-13.398-17.562-19.822-18.457
			c-11.918-1.66-27.229,1.27-29.429,13.041c-2.778,14.859-0.433,28.064,3.701,44.207c3.377,13.188,11.072,13.641,17.966,15.023
			c7.093,1.425,19.885,1.79,21.803-3.795C107.605,78.607,103.024,66.349,108.649,57.827z"/>
		<g>
			<path fill="#CA5E28" d="M107.367,75.957c-0.098-2.379-0.384-4.695-0.98-6.998c-0.009-0.037-0.041-0.052-0.058-0.083
				c0.001-0.811-0.007-1.621-0.047-2.437c-0.036-0.742-1.037-0.764-1.181-0.1c-0.203,0.127-0.392,0.24-0.571,0.447
				c-0.313,0.364-0.631,0.725-0.941,1.089c-0.099,0.114-0.204,0.225-0.307,0.337c-0.241-0.252-0.615-0.354-1.005-0.139
				c-0.471,0.26-0.795,0.578-1.096,0.947c-0.81-0.264-1.946,0.096-2.679,0.518c-0.026,0.016-0.053,0.032-0.08,0.049
				c-0.063-0.148-0.146-0.287-0.247-0.389c-0.769-0.774-5.218,2.381-5.267,2.413c-0.835-0.836-5.271-0.521-5.924-0.097
				c-0.686-0.604-5.078-3.539-5.597-3.803c-0.269-0.137-0.642,0.027-0.628,0.359c0.001,0.024,0.01,0.039,0.01,0.062
				c-0.475-0.315-0.964-0.614-1.417-0.906c-0.864-0.561-2.264-1.325-3.247-0.698c-0.088,0.057-0.146,0.133-0.209,0.207
				c-0.786-0.336-1.505-0.843-2.254-1.253c-0.528-0.29-1.979-0.7-2.295-0.015c-0.039-0.023-0.076-0.043-0.115-0.066
				c-0.448-0.268-0.828-0.644-1.223-0.98c-0.807-0.688-1.906-1.592-3.031-1.23c-0.271,0.086-0.438,0.277-0.541,0.493
				c-0.451-0.194-0.919-0.345-1.333-0.476c-1.274-0.404-2.407-0.828-3.497-1.637c-0.107-0.078-0.213-0.102-0.318-0.104
				c-0.2-0.263-0.691-0.2-0.701,0.221c-0.029,1.173,0.186,2.301,0.478,3.433c0.018,1.025,0.19,2.078,0.323,2.996
				c0.238,1.645,0.143,4.506,1.51,5.613c0.086,0.068,0.184,0.116,0.285,0.146l0.018,0.2c0.105,1.16,0.096,2.689,0.518,3.908
				c0.004,0.154,0.007,0.314,0.008,0.467c0.017,2.15-0.168,5.463,1.549,7.01c0.283,0.255,0.65,0.277,0.954,0.141
				c0.12,0.49,0.231,0.957,0.317,1.381c0.198,0.982,1.108,1.224,1.858,0.963c0.239,0.656,0.562,1.248,1.027,1.673
				c0.161,0.149,0.353,0.177,0.534,0.152c0.056,0.142,0.105,0.295,0.163,0.433c0.256,0.605,0.776,0.705,1.245,0.533
				c0.324,0.459,0.866,0.719,1.461,0.557c0.076-0.021,0.151-0.053,0.224-0.09c0.03,0.117,0.058,0.24,0.089,0.354
				c0.283,1.028,1.301,1.238,2.056,0.902c0.39,0.76,1.104,1.27,2.021,1.016c0.367-0.101,0.699-0.357,0.938-0.686
				c0.018,0.057,0.033,0.114,0.053,0.172c0.37,1.066,1.549,0.955,2.011,0.291c0.298,0.336,0.725,0.52,1.217,0.383
				c0.111-0.031,0.212-0.08,0.306-0.139c0.314,0.625,0.912,1.04,1.654,0.836c0.378-0.104,0.717-0.404,0.906-0.77
				c0.034,0.061,0.061,0.129,0.099,0.186c0.477,0.734,1.269,0.623,1.72,0.18c0.006,0.014,0.01,0.027,0.015,0.041
				c0.196,0.451,0.82,0.629,1.258,0.511c0.036-0.01,0.056-0.033,0.089-0.045c0.017,0.042,0.023,0.083,0.041,0.125
				c0.258,0.685,0.896,1.147,1.652,0.938c0.319-0.088,0.561-0.273,0.726-0.51c0.364,0.249,0.875,0.232,1.281,0.03
				c0.613,0.923,2.187,0.626,2.609-0.315c0.498,0.504,1.49,0.54,1.997,0.018c0.571,0.635,1.82,0.6,2.319-0.099
				c0.619,0.094,1.308-0.165,1.58-0.771c0.237,0.112,0.485,0.193,0.731,0.193c0.911,0,1.506-0.663,1.659-1.487
				c0.746,0.069,1.548-0.296,1.794-1.154c0.132-0.465,0.15-0.979,0.15-1.483c0.666,0.011,1.336-0.35,1.493-1.096
				c0.168-0.807,0.108-1.625,0.015-2.441c0.186-0.134,0.324-0.336,0.369-0.627c0.185-1.232-0.011-2.535-0.147-3.816
				c0.341-0.148,0.555-0.496,0.587-0.891c0.026-0.314-0.014-0.615-0.075-0.91c0.427-0.244,0.726-0.729,0.617-1.426
				c-0.082-0.529-0.107-1.104-0.172-1.662c0.012-0.006,0.021-0.01,0.033-0.016C107.117,76.823,107.386,76.388,107.367,75.957z"/>
			<g>
				<path fill="#FAA81D" d="M98.625,71.289c-1.121,0.08-2.173,0.498-3.248,0.803c-1.604,0.453-3.127,0.535-4.771,0.631
					c-0.118,0.008-0.133,0.16-0.025,0.201c2.32,0.895,6.023-0.201,8.146-1.264C98.9,71.573,98.822,71.275,98.625,71.289z"/>
				<path fill="#FAA81D" d="M98.221,73.896c-2.745,0.43-5.18,2.492-8.117,1.395c-0.064-0.023-0.109,0.084-0.047,0.11
					c2.457,1.05,6.231,0.45,8.283-1.304C98.442,74.011,98.329,73.88,98.221,73.896z"/>
				<path fill="#FAA81D" d="M104.31,69.96c-0.741,0.182-1.434,0.764-2.115,1.114c-0.898,0.463-1.815,0.866-2.681,1.399
					c-0.162,0.101-0.019,0.34,0.152,0.256c0.908-0.449,1.858-0.81,2.787-1.214c0.695-0.304,1.633-0.669,1.993-1.378
					C104.495,70.043,104.417,69.935,104.31,69.96z"/>
				<path fill="#FAA81D" d="M103.611,72.048c-1.198,0.615-2.651,1.014-3.733,1.82c-0.141,0.104-0.063,0.375,0.13,0.305
					c1.271-0.47,2.752-0.999,3.755-1.928C103.872,72.144,103.733,71.986,103.611,72.048z"/>
				<path fill="#FAA81D" d="M102.56,69.334c-0.808,0.049-1.488,0.694-2.028,1.238c-0.108,0.11,0.036,0.313,0.169,0.219
					c0.613-0.444,1.405-0.704,1.966-1.203C102.759,69.503,102.688,69.328,102.56,69.334z"/>
				<path fill="#FAA81D" d="M105.601,67.346c-0.54,0.319-1.077,0.896-1.267,1.5c-0.05,0.159,0.157,0.267,0.271,0.158
					c0.442-0.425,0.985-0.909,1.22-1.485C105.879,67.39,105.708,67.285,105.601,67.346z"/>
				<path fill="#FAA81D" d="M87.86,72.713c-0.441-0.009-0.82,0.18-1.271,0.197c-0.613,0.024-1.188-0.236-1.717-0.519
					c-1.062-0.567-1.741-1.459-2.44-2.396c-0.104-0.136-0.365-0.062-0.297,0.125c0.408,1.134,1.516,2.051,2.502,2.674
					c0.816,0.516,2.619,1.185,3.354,0.235C88.086,72.908,88.037,72.716,87.86,72.713z"/>
				<path fill="#FAA81D" d="M88.377,75.001c-0.834-0.486-1.826-0.369-2.768-0.425c-1.775-0.105-2.857-1.132-4.153-2.179
					c-0.066-0.054-0.175,0.014-0.125,0.096c1.4,2.289,4.461,2.98,6.974,2.777C88.442,75.259,88.508,75.078,88.377,75.001z"/>
				<path fill="#FAA81D" d="M81.03,69.483c-0.189-0.162-0.407-0.162-0.646-0.229c-0.395-0.113-0.758-0.346-1.1-0.572
					c-0.644-0.429-1.109-0.982-1.643-1.526c-0.119-0.124-0.293,0.031-0.227,0.174c0.333,0.696,1.055,1.26,1.668,1.698
					c0.408,0.293,1.42,0.976,1.926,0.623C81.061,69.613,81.086,69.53,81.03,69.483z"/>
				<path fill="#FAA81D" d="M79.91,73.154c-0.455-0.348-0.993-0.573-1.464-0.902c-0.621-0.432-1.154-0.99-1.682-1.528
					c-0.939-0.96-1.758-2.118-2.393-3.303c-0.07-0.134-0.261-0.017-0.199,0.116c0.644,1.385,1.516,2.604,2.513,3.752
					c0.726,0.837,1.974,2.09,3.156,2.116C79.989,73.408,80.006,73.228,79.91,73.154z"/>
				<path fill="#FAA81D" d="M73.233,68.55c-0.681-0.512-1.344-1.092-1.807-1.812c-0.1-0.158-0.328-0.021-0.248,0.145
					c0.352,0.725,0.848,1.291,1.457,1.808c0.469,0.395,1.096,1.073,1.711,1.155c0.086,0.012,0.164-0.098,0.135-0.176
					C74.288,69.16,73.651,68.867,73.233,68.55z"/>
				<path fill="#FAA81D" d="M70.073,66.896c-0.289-0.392-0.693-0.639-1.074-0.938c-0.443-0.349-0.865-0.773-1.174-1.247
					c-0.133-0.204-0.416-0.028-0.32,0.188c0.403,0.916,1.418,1.967,2.43,2.18C70.029,67.1,70.145,66.992,70.073,66.896z"/>
				<path fill="#FAA81D" d="M66.701,65.546c-0.595-0.646-1.363-1.113-2.085-1.605c-0.781-0.533-1.578-1.103-2.498-1.369
					c-0.075-0.021-0.148,0.086-0.08,0.141c0.658,0.525,1.382,0.967,2.07,1.452c0.797,0.561,1.561,1.233,2.488,1.561
					C66.704,65.763,66.768,65.621,66.701,65.546z"/>
				<path fill="#FAA81D" d="M62.845,65.674c-0.03-0.085-0.167-0.077-0.165,0.022c0.037,1.169,0.328,2.303,0.522,3.453
					c0.255,1.502,0.095,2.924,0.188,4.417c0.014,0.21,0.312,0.265,0.373,0.051C64.428,71.283,63.641,67.9,62.845,65.674z"/>
				<path fill="#FAA81D" d="M66.656,81.261c-0.03-1.373-0.034-2.762-0.165-4.131c-0.02-0.209-0.307-0.209-0.324,0
					c-0.127,1.369-0.086,2.757-0.082,4.131c0.002,1.207-0.105,2.456,0.135,3.643c0.036,0.182,0.33,0.182,0.367,0
					C66.821,83.714,66.681,82.47,66.656,81.261z"/>
				<path fill="#FAA81D" d="M65.229,75.804c0.074-1.725,0.649-3.3,0.867-4.984c0.029-0.223-0.297-0.273-0.397-0.107
					c-1.644,2.715-1.47,7.189-0.808,10.18c0.046,0.207,0.346,0.147,0.355-0.049C65.333,79.166,65.155,77.486,65.229,75.804z"/>
				<path fill="#FAA81D" d="M66.858,67.26c-0.683-0.432-1.244,0.424-1.49,0.95c-0.094,0.198,0.16,0.342,0.287,0.169
					c0.178-0.236,0.383-0.46,0.634-0.619c0.167-0.105,0.391-0.118,0.569-0.212C66.973,67.488,66.958,67.324,66.858,67.26z"/>
				<path fill="#FAA81D" d="M68.392,70.115c0.037-0.156-0.168-0.241-0.255-0.107c-1.434,2.232-1.236,5.921-0.104,8.252
					c0.079,0.162,0.329,0.078,0.329-0.089c0-1.187-0.305-2.348-0.428-3.524C67.772,73.098,68.041,71.615,68.392,70.115z"/>
				<path fill="#FAA81D" d="M70.584,88.464c-1.356-1.91-1.846-3.751-2.27-6.023c-0.025-0.127-0.241-0.131-0.26,0
					c-0.324,2.134,0.451,4.969,2.256,6.296C70.471,88.855,70.698,88.624,70.584,88.464z"/>
				<path fill="#FAA81D" d="M71.108,84.082c-0.676-1.441-1.16-2.505-1.271-4.144c-0.096-1.427-0.086-2.862-0.148-4.292
					c-0.002-0.023-0.035-0.023-0.037,0c-0.152,2.288-1.395,7.248,1.178,8.715C71.017,84.468,71.192,84.259,71.108,84.082z"/>
				<path fill="#FAA81D" d="M72.034,77.947c-0.123-0.575-0.093-1.191-0.286-1.748c-0.052-0.146-0.244-0.145-0.296,0
					C71.129,77.113,71,79.011,72,79.562c0.16,0.088,0.351-0.023,0.356-0.203C72.37,78.869,72.135,78.418,72.034,77.947z"/>
				<path fill="#FAA81D" d="M75.456,90.796c-0.538-0.683-1.161-1.254-1.654-1.984c-0.533-0.791-0.939-1.689-1.273-2.58
					c-0.044-0.119-0.227-0.105-0.227,0.031c-0.014,1.041,0.387,2.016,0.871,2.917c0.416,0.772,1.152,1.815,2.086,1.958
					C75.466,91.169,75.586,90.962,75.456,90.796z"/>
				<path fill="#FAA81D" d="M74.09,83.33c-0.316-0.785-0.433-1.659-0.796-2.418c-0.062-0.129-0.252-0.084-0.288,0.039
					c-0.445,1.487,0.744,3.74,1.625,4.887c0.123,0.16,0.391,0.074,0.34-0.144C74.776,84.859,74.411,84.123,74.09,83.33z"/>
				<path fill="#FAA81D" d="M104.648,73.798c-0.135-0.061-0.323,0.072-0.223,0.222c0.492,0.735,0.547,1.663,1.035,2.378
					c0.077,0.112,0.271,0.11,0.305-0.039C105.964,75.492,105.492,74.178,104.648,73.798z"/>
				<path fill="#FAA81D" d="M104.198,77.71c-0.111-0.153-0.382-0.069-0.323,0.136c0.562,1.917,0.119,3.997,0.739,5.866
					c0.058,0.174,0.29,0.172,0.348,0C105.587,81.878,105.359,79.292,104.198,77.71z"/>
				<path fill="#FAA81D" d="M101.208,76.066c-0.079-0.062-0.204,0.04-0.171,0.131c0.635,1.705,0.283,3.414,0.653,5.146
					c0.043,0.203,0.356,0.199,0.403,0C102.463,79.755,102.672,77.193,101.208,76.066z"/>
				<path fill="#FAA81D" d="M102.725,84.308c-0.024-0.102-0.187-0.08-0.183,0.025c0.044,1.271-0.168,2.516-0.397,3.763
					c-0.206,1.122-0.729,2.293-0.588,3.438c0.033,0.262,0.324,0.348,0.485,0.131c0.708-0.954,0.784-2.303,0.932-3.457
					C103.142,86.884,103.026,85.599,102.725,84.308z"/>
				<path fill="#FAA81D" d="M99.211,80.019c-0.085-0.178-0.326-0.045-0.297,0.125c0.362,2.1,0.054,4.027,0.063,6.119
					c0.001,0.231,0.337,0.34,0.45,0.121C100.416,84.466,100.119,81.908,99.211,80.019z"/>
				<path fill="#FAA81D" d="M97.441,86.667c-0.032-0.15-0.274-0.153-0.305,0c-0.262,1.294-0.16,2.615-0.601,3.875
					c-0.304,0.865-1.074,1.882-0.471,2.734c0.078,0.109,0.232,0.146,0.335,0.042c0.661-0.675,0.852-2.058,1.139-2.956
					C97.905,89.208,97.695,87.824,97.441,86.667z"/>
				<path fill="#FAA81D" d="M94.554,82.729c-0.045-0.154-0.282-0.165-0.321,0c-0.207,0.854-0.279,1.739-0.47,2.6
					c-0.178,0.796-0.487,1.521-0.483,2.345c0,0.118,0.169,0.213,0.255,0.105C94.466,86.585,94.981,84.201,94.554,82.729z"/>
				<path fill="#FAA81D" d="M94.036,89.641c-0.324,0.882-0.918,1.684-1.502,2.413c-0.457,0.572-1.136,1.131-1.42,1.812
					c-0.051,0.121,0.095,0.236,0.205,0.205c0.812-0.227,1.46-1.148,1.937-1.797c0.568-0.775,0.95-1.637,1.055-2.597
					C94.329,89.512,94.087,89.504,94.036,89.641z"/>
				<path fill="#FAA81D" d="M76.073,81.318c-0.045-0.187-0.358-0.15-0.339,0.045c0.206,2.008,0.772,4.039,2.004,5.67
					c0.136,0.18,0.409,0.077,0.365-0.154C77.731,84.934,76.53,83.25,76.073,81.318z"/>
				<path fill="#FAA81D" d="M78.879,91.744c-0.371-0.574-0.703-1.176-1.082-1.75c-0.24-0.362-0.494-1.188-0.902-1.375
					c-0.095-0.043-0.211-0.028-0.266,0.07c-0.248,0.441,0.283,1.139,0.493,1.504c0.409,0.703,0.862,1.242,1.48,1.764
					C78.747,92.079,78.996,91.921,78.879,91.744z"/>
				<path fill="#FAA81D" d="M82.194,90.972c-0.421-0.689-1.018-1.201-1.388-1.953c-0.435-0.883-0.679-1.859-0.972-2.795
					c-0.057-0.184-0.332-0.107-0.285,0.078c0.331,1.354,0.561,4.722,2.383,5.011C82.121,91.343,82.311,91.163,82.194,90.972z"/>
				<path fill="#FAA81D" d="M91.092,87.251c-0.672,1.614-2.084,2.918-2.578,4.589c-0.072,0.241,0.236,0.407,0.41,0.239
					c1.25-1.213,1.969-3.109,2.534-4.727C91.541,87.117,91.183,87.033,91.092,87.251z"/>
				<path fill="#FAA81D" d="M87.311,87.422c-0.719,1.605-1.943,2.938-2.549,4.576c-0.074,0.202,0.21,0.345,0.35,0.204
					c1.23-1.247,2.045-2.954,2.574-4.623C87.754,87.362,87.407,87.209,87.311,87.422z"/>
				<path fill="#FAA81D" d="M83.699,86.648c-0.062-0.244-0.473-0.198-0.446,0.061c0.117,1.208,0.082,2.41,0.302,3.604
					c0.026,0.147,0.269,0.147,0.294,0C84.075,89.08,84.006,87.867,83.699,86.648z"/>
			</g>
		</g>
		<g>
			<path fill="#B54A26" d="M94.126,65.367c-1.43-4.278-2.075-6.539-3.406-10.943c-1.117-3.699-1.546-8.715-2.294-6.563
				c-0.568,1.638-2.541,11.786-3.371,16.574c-0.219,1.261-0.317,1.258-0.332,1.522c-0.063,1.269,0.489,1.906,1.652,2.963
				c1.732,1.573,3.799,1.598,5.766,0.812C94.197,68.91,95.062,68.164,94.126,65.367z"/>
			<path fill="#F47E4F" d="M93.703,64.076c-1.352-3.968-1.766-6.08-3.024-10.164c-1.056-3.433-1.461-8.084-2.167-6.088
				c-0.679,1.918-3.724,16.469-3.784,17.646c-0.06,1.175,0.41,0.87,1.496,1.199c0.502,0.152,5.483,0.745,6.483,1.008
				C95.235,68.343,94.585,66.67,93.703,64.076z"/>
		</g>
		<g>
			<path fill="#FFFFFF" d="M75.673,47.218c-6.919,0-6.919,4,0,4C82.593,51.218,82.593,47.218,75.673,47.218z"/>
			<path fill="#46331E" d="M73.878,47.612c-2.579,0-2.579,4.001,0,4.001C76.459,51.613,76.459,47.612,73.878,47.612z"/>
			<path fill="#46331E" d="M75.981,49.105c9.707,0.261,2.261-2.358-0.292-1.979C73.135,47.505,64.471,48.794,75.981,49.105z"/>
		</g>
		<g>
			<path fill="#FFFFFF" d="M99.608,48.738c-6.733,0-6.733,4,0,4S106.341,48.738,99.608,48.738z"/>
			<path fill="#46331E" d="M100.098,50.349c9.704,0.263,2.259-2.358-0.294-1.978C97.251,48.75,88.586,50.039,100.098,50.349z"/>
			<path fill="#46331E" d="M98.008,48.945c-2.58,0-2.58,4,0,4S100.588,48.945,98.008,48.945z"/>
		</g>
		<g>
			<path fill="#FCBD73" d="M71.37,72.904c3.607,4.938,5.5,10.893,10.861,11.486c2.564,0.284,5.81,1.237,8.277,0
				c3.016-1.512,4.916-3.384,7.125-6.314c0.185-0.244-6.458,2.438-12.553,1.283C78.022,78.021,71.334,72.857,71.37,72.904z"/>
			<path fill="#46331E" d="M99.529,76.392c0,0-5.668,8.142-15.015,6.593c-9.348-1.548-13.812-11.288-14.727-12.774
				c-0.918-1.486-0.348-2.054,0.956-0.891c5.745,5.127,19.101,9.071,27.121,6.728C101.412,75.013,99.529,76.392,99.529,76.392z"/>
			<path fill="#FFFFFF" d="M95.529,76.907c-1.843,0.384-4.782,0.174-4.782,0.174c-5.635-0.36-12.041-2.327-16.645-4.957
				c-0.086,0.284,0.203,1.338,0.009,1.548c-0.253,0.269-1.294,0.129-1.616,0.217c2.271,3.127,6.34,6.855,12.143,7.816
				c0.512,0.085,1.014,0.142,1.5,0.173c5.077,0.323,8.921-1.942,10.127-2.752c-0.099-0.142-1.127-0.519-1.183-0.682
				C95.026,78.282,95.542,77.082,95.529,76.907z"/>
		</g>
		<g>
			<path fill="#AC5526" d="M108.971,44.869c-1.859-0.29-4.52-0.504-6.393-0.697c-1.105-0.115-4.886-0.049-7.043-1.994
				c-1.421-1.283-2.632,1.515-0.918,2.789c1.134,0.842,2.346,1.411,3.778,1.387c0.658-0.011,8.398-0.51,10.618-0.741
				C109.462,45.567,109.365,44.929,108.971,44.869z"/>
			<path fill="#FAA81D" d="M108.939,44.93c-2.372,0.303-5.012-0.179-7.373-0.461c-2.515-0.3-4.471-0.72-6.543-2.269
				c-0.042-0.032-0.113,0.021-0.081,0.07c0.753,1.151,2.366,2.131,3.732,2.359c3.441,0.574,6.85,0.517,10.295,0.814
				C109.34,45.476,109.324,44.881,108.939,44.93z"/>
		</g>
		<g>
			<path fill="#AC5526" d="M81.112,40.341c-4.189-1.824-12.534-2.598-15.219,1.789c-1.109,1.812-0.009,1.695,1.488,0.203
				c3.131-3.118,9.045-0.614,12.583,0.638c0.582,0.207,2.226-0.062,2.69-0.876C83.073,41.364,82.117,40.779,81.112,40.341z"/>
			<path fill="#FAA81D" d="M82.02,40.96c-4.483-1.77-13.903-3.645-16.27,1.785c-0.026,0.061,0.074,0.09,0.109,0.041
				c3.379-4.436,11.085-3.428,15.664-1.056C82.086,42.023,82.588,41.185,82.02,40.96z"/>
		</g>
		<g>
			<g>
				<path fill="#CA5E28" d="M72.318,26.362c3.493,3.836,7.985,5.329,12.735,6.591c6.003,1.595,12.241,2.113,18.361,3.074
					c4.381,0.689,10.052,1.127,13.514,4.352c0.423,0.393,0.076-1.168-0.178-1.359c-3.836-10.076-4.828-19.059-22.164-22.524
					c-5.876-1.175-8.049-2.216-14.539-1.948c-3.652,0.15-8.338,1.422-9.959,3.569C68.169,20.653,70.719,24.606,72.318,26.362z"/>
				<path fill="#CA5E28" d="M74.847,18.368c-2.661-1.269-9.981,3.917-12.301,6.921c-7.104,9.198-3.167,13.684-2.602,17.61
					c-0.062,0.139,0.126,0.659,0.214,0.409c0.716-2.043,3.537-7.412,5.154-9.132c2.26-2.401,4.659-4.733,6.737-7.256
					c1.646-1.997,3.14-3.962,3.741-6.174C76.067,19.734,75.84,18.84,74.847,18.368z"/>
				<path fill="#CA5E28" d="M75.377,18.028c-2.757-2.255-12.221,1.392-15.278,4.409c-5.618,5.543-4.933,11.352-5.071,16.076
					c-0.096,0.143,0.014,0.801,0.162,0.537c1.215-2.16,4.107-3.965,6.275-5.485c3.029-2.122,6.205-4.121,9.057-6.436
					c2.254-1.833,4.334-3.673,5.452-6.063C76.486,19.972,76.406,18.869,75.377,18.028z"/>
				<path fill="#CA5E28" d="M116.133,47.51c-2.136-8.251-8.833-15.764-17.538-21.77c-2.044-1.411-4.265-2.617-6.539-3.756
					c-5.243,0.669-11.55-0.714-15.825-1.713c-0.599-0.14-1.244-0.297-1.912-0.475c2.83,3.786,7.987,3.522,12.311,6.35
					c5.725,3.741,11.114,8.279,17.061,11.664c4.258,2.423,9.48,7.011,12.39,10.658C116.436,48.914,116.355,47.748,116.133,47.51z"/>
			</g>
			<g>
				<path fill="#FAA81D" d="M61.209,24.416c-3.174,1.417-5.535,6.788-5.291,10.101c0.012,0.144,0.217,0.115,0.24-0.01
					c0.391-2.17,0.939-4.01,2.092-5.907c0.887-1.458,2.297-2.503,3.152-3.948C61.481,24.52,61.362,24.348,61.209,24.416z"/>
				<path fill="#FAA81D" d="M64.821,25.569c-1.445-0.423-3.164,1.678-4.012,2.591c-1.224,1.321-2.839,3.326-2.918,5.223
					c-0.006,0.13,0.183,0.231,0.26,0.097c0.847-1.476,1.643-2.868,2.741-4.183c0.698-0.835,1.499-1.578,2.366-2.233
					c0.539-0.41,1.246-0.598,1.67-1.137C65.018,25.814,64.965,25.61,64.821,25.569z"/>
				<path fill="#FAA81D" d="M63.028,22.878c-0.004-0.001-0.004,0.003-0.008,0.003c-0.005,0-0.002-0.007-0.008-0.007
					S63,22.875,62.995,22.875c-0.022,0-0.021,0.021-0.027,0.036c-0.008,0.009-0.014,0.009-0.016,0.02
					c0,0.011,0.006,0.011,0.011,0.022c0.005,0.017-0.001,0.036,0.021,0.042c0.006,0.001,0.012,0.003,0.018,0.004
					s0.004-0.007,0.009-0.006c0.004,0,0.004,0.005,0.007,0.005c0.039,0.002,0.076-0.002,0.113-0.014
					c0.035-0.008,0.039-0.056,0.006-0.071C63.102,22.895,63.065,22.883,63.028,22.878z"/>
				<path fill="#FAA81D" d="M71.323,19.108c-1.368-0.348-3.027,0.411-4.303,0.898c-1.475,0.563-2.926,1.446-3.846,2.75
					c-0.133,0.189,0.103,0.369,0.275,0.259c1.287-0.819,2.548-1.583,3.967-2.149c1.266-0.504,2.848-0.556,3.979-1.307
					C71.553,19.455,71.506,19.156,71.323,19.108z"/>
				<path fill="#FAA81D" d="M73.439,20.612c-1.093-0.667-2.771,0.153-3.802,0.629c-1.297,0.6-2.756,1.6-3.314,2.968
					c-0.057,0.143,0.139,0.303,0.256,0.183c0.901-0.921,1.943-1.62,3.107-2.175c0.709-0.339,1.439-0.6,2.205-0.773
					c0.505-0.114,1.029-0.115,1.5-0.337C73.575,21.02,73.629,20.728,73.439,20.612z"/>
				<path fill="#FAA81D" d="M65.571,27.26c-3.201,1.547-5.68,7.173-5.221,10.575c0.018,0.134,0.242,0.168,0.276,0.027
					c0.518-2.133,1.164-4.083,2.271-5.991c0.876-1.514,2.238-2.751,2.987-4.318C65.975,27.366,65.746,27.176,65.571,27.26z"/>
				<path fill="#FAA81D" d="M69.917,25.25c-1.709,1.569-3.67,3.204-4.27,5.545c-0.066,0.257,0.26,0.38,0.381,0.146
					c1.057-2.041,2.871-3.551,4.184-5.414C70.342,25.341,70.09,25.09,69.917,25.25z"/>
				<path fill="#FAA81D" d="M111.086,41.029c-2.638-3.432-5.708-7.957-9.967-9.484c-0.161-0.058-0.288,0.166-0.145,0.268
					c1.902,1.336,3.768,2.492,5.476,4.101c1.667,1.572,3.051,3.461,4.456,5.262C110.999,41.294,111.178,41.147,111.086,41.029z"/>
				<path fill="#FAA81D" d="M110.085,34.75c-0.974-2.011-2.384-3.594-4.117-4.987c-1.715-1.376-3.99-3.006-6.168-3.505
					c-0.143-0.033-0.181,0.167-0.093,0.243c1.413,1.218,3.283,1.944,4.835,2.995c2.086,1.413,3.967,3.201,5.196,5.414
					C109.858,35.122,110.194,34.974,110.085,34.75z"/>
				<path fill="#FAA81D" d="M103.814,21.66c-0.16-0.113-0.356,0.097-0.233,0.248c1.436,1.79,3.247,3.288,4.73,5.055
					c1.776,2.116,2.917,4.583,4.349,6.916c0.08,0.131,0.332,0.089,0.281-0.087C111.675,29.303,107.582,24.316,103.814,21.66z"/>
				<path fill="#FAA81D" d="M100.621,21.837c-3.031-2.464-7.251-5.485-11.37-5.16c-0.143,0.012-0.169,0.25-0.029,0.285
					c4.239,1.061,7.58,2.692,11.182,5.176C100.602,22.274,100.805,21.987,100.621,21.837z"/>
				<path fill="#FAA81D" d="M97.6,24.322c-2.897-2.238-7.717-3.182-11.304-3.432c-0.144-0.01-0.175,0.173-0.056,0.233
					c1.322,0.657,2.862,0.826,4.301,1.117c2.444,0.493,4.661,1.155,6.83,2.397C97.587,24.761,97.803,24.478,97.6,24.322z"/>
				<path fill="#FAA81D" d="M98.947,28.809c-2.736-2.948-8.407-3.763-12.229-4.057c-0.087-0.007-0.12,0.123-0.036,0.152
					c2.037,0.712,4.197,1.026,6.28,1.582c2.102,0.562,3.879,1.65,5.843,2.519C98.919,29.055,99.033,28.9,98.947,28.809z"/>
				<path fill="#FAA81D" d="M95.808,31.556c-4.756-0.448-9.003-0.706-13.31-2.964c-0.1-0.053-0.199,0.096-0.126,0.174
					c3.225,3.445,9.109,3.037,13.411,3.029C95.937,31.795,95.965,31.57,95.808,31.556z"/>
				<path fill="#FAA81D" d="M85.985,26.923c-3.218-1.854-7.46-2.774-11.151-2.687c-0.053,0.002-0.062,0.076-0.009,0.083
					c3.837,0.576,7.307,1.913,11.024,2.854C85.994,27.21,86.137,27.011,85.985,26.923z"/>
				<path fill="#FAA81D" d="M90.276,18.494c-3.953-2.367-9.482-1.878-13.605-0.269c-0.08,0.031-0.038,0.162,0.043,0.141
					c4.708-1.225,8.795-0.762,13.436,0.363C90.284,18.761,90.418,18.58,90.276,18.494z"/>
				<path fill="#FAA81D" d="M84.342,22.463c-0.659-0.529-1.508-0.706-2.31-0.917c-1.022-0.268-2.039-0.535-3.037-0.882
					c-0.149-0.053-0.274,0.159-0.136,0.25c0.713,0.468,1.474,0.715,2.295,0.938c1.014,0.275,2.009,0.662,3.025,0.911
					C84.363,22.808,84.502,22.592,84.342,22.463z"/>
			</g>
		</g>
	</g>
	<g>
		<path fill="#FFFFFF" d="M158.914,360.634c0-1.174-10.594-2.125-23.662-2.125s-23.662,0.951-23.662,2.125c0,0.295,0,1.666,0,2.125
			c0,1.83,10.594,3.312,23.662,3.312s23.662-1.482,23.662-3.312C158.914,362.3,158.914,360.929,158.914,360.634z"/>
		<path fill="#F36B21" d="M153.233,355.292c-2.243,0.406-20.832-5.711-23.387-6.797c-2.507-1.064-4.907-2.6-7.503-3.385
			c-3.175-0.959-7.187,2.027-8.863,4.877c-1.424,2.422-2.604,6.594-1.544,9.395c0.505,1.334,1.773,1.617,2.932,1.885
			c2.538,0.588,4.952,0.602,7.522,0.756c5.983,0.359,32.847,1.52,36.431-1.57C160.004,359.433,158.914,354.267,153.233,355.292z"/>
		<path fill="#FDBA32" d="M150.542,362.218c4.05-0.301,7.207-0.842,8.278-1.766c1.143-0.984,0.153-5.812-5.021-5.229
			c-0.003,0.002-0.007,0.006-0.01,0.008c-1.237,1-1.767,2.975-2.315,4.395C151.22,360.286,150.786,361.257,150.542,362.218z"/>
		<g>
			<path fill="#FFFFFF" d="M140.226,355.896c0.021-0.199-0.019-0.398-0.124-0.555c0.31-0.428,0.543-1.027,0.724-1.338
				c0.267-0.459,0.612-0.998,0.854-1.543c-0.364-0.111-0.729-0.225-1.092-0.338c-0.277,0.594-0.563,1.182-0.85,1.775
				c-0.047,0.098-0.373,0.715-0.513,1.225c-0.404,0.115-0.777,0.426-0.989,0.775c-0.257,0.42-0.045,1.115,0.481,1.213
				c0.223,0.041,0.428,0.037,0.62-0.01c0.201,0.014,0.401-0.043,0.585-0.229c0.264-0.264,0.31-0.67,0.322-1.023
				C140.239,355.864,140.233,355.88,140.226,355.896z"/>
			<path fill="#FFFFFF" d="M137.71,351.208c-0.37-0.119-0.732-0.236-1.09-0.354c-0.346,0.51-0.627,1.084-0.896,1.609
				c-0.265,0.52-0.865,1.312-0.939,1.977c-0.112,0.033-0.217,0.082-0.311,0.148c-0.136,0.064-0.236,0.154-0.289,0.27
				c-0.034,0.041-0.069,0.08-0.101,0.121c-0.11,0.15-0.132,0.307-0.106,0.453c-0.082,0.203,0.019,0.467,0.162,0.613
				c0.105,0.105,0.224,0.189,0.348,0.275c0.339,0.23,0.729,0.033,0.945-0.248c0.139-0.184,0.15-0.438,0.274-0.611
				c0.242-0.342,0.098-0.686-0.175-0.887c0.32-0.346,0.538-0.881,0.728-1.221C136.672,352.614,137.067,351.782,137.71,351.208z"/>
			<path fill="#FFFFFF" d="M131.197,353.897c-0.006-0.033-0.026-0.059-0.036-0.088c0.807-0.771,1.473-1.742,2.214-2.566
				c0.345-0.383,0.711-0.744,1.077-1.107c-0.378-0.127-0.741-0.25-1.086-0.367c-0.237,0.301-0.455,0.594-0.645,0.822
				c-0.685,0.82-1.455,1.738-1.931,2.732c-0.259-0.141-0.579-0.107-0.835,0.107c-0.047,0.039-0.076,0.084-0.102,0.131h-0.001
				c-0.003,0.004-0.002,0.01-0.005,0.014c-0.015,0.027-0.029,0.057-0.044,0.088c-0.016,0.033-0.018,0.066-0.026,0.102
				c-0.015,0.045-0.042,0.086-0.05,0.133C129.511,355.14,131.439,355.11,131.197,353.897z"/>
			<path fill="#FFFFFF" d="M150.61,354.94c-0.324-0.07-0.669-0.152-1.033-0.24c-0.605,0.652-1.222,1.361-1.652,2.135
				c-0.25-0.156-0.571-0.143-0.84,0.057c-0.05,0.035-0.081,0.078-0.109,0.123h-0.002c-0.002,0.004-0.002,0.01-0.005,0.014
				c-0.017,0.027-0.033,0.055-0.049,0.086c-0.018,0.031-0.021,0.064-0.033,0.098c-0.017,0.045-0.047,0.086-0.058,0.129
				c-0.293,1.229,1.633,1.318,1.466,0.092c-0.004-0.033-0.022-0.059-0.03-0.09C149.109,356.63,149.828,355.712,150.61,354.94z"/>
			<path fill="#FFFFFF" d="M146.123,353.778c-0.325-0.094-0.656-0.188-0.991-0.285c-0.145,0.266-0.263,0.512-0.337,0.639
				c-0.364,0.621-0.713,1.266-0.998,1.934c-0.314-0.066-0.704,0.068-0.865,0.336c-0.218,0.23-0.336,0.508-0.215,0.863
				c0.035,0.104,0.099,0.188,0.175,0.26c0.055,0.09,0.13,0.166,0.229,0.205c0.074,0.029,0.148,0.062,0.222,0.094
				c0.238,0.105,0.601,0.086,0.762-0.154c0.105-0.156,0.21-0.312,0.313-0.469c0.116-0.176,0.089-0.514-0.049-0.672
				c-0.013-0.016-0.027-0.033-0.041-0.049c0.419-0.654,0.843-1.305,1.252-1.963C145.66,354.388,145.901,354.099,146.123,353.778z"/>
		</g>
	</g>
	<g>
		<path fill="#D8E0F2" d="M108.033,107.074c-5.57-1.766-9.205-1.904-15.421-4.474c-1.034-0.468-1.838-1.165-2.469-2.026
			l-3.599,6.186v-0.45h-7.396v0.104l-7.831-8.018c-0.843,1.113-1.933,2.027-3.345,2.592c-0.203,0.082-0.363,0.201-0.537,0.257
			c-3.972,1.261-8.613,1.021-13.482,1.643c-12.453,1.593-9.078,1.858-6.605,21.505c0.408,3.243,4.703,19.247,6.883,33.597
			c1.555,10.239,1.078,31.635,1.076,34.986c-0.006,9.625,3.91,21.344,5.946,22.938c1.176,0.92,12.37-0.914,22.829-0.291
			c5.612,0.334,10.984,2.354,14.559,2.549c1.018-0.209,2.021-0.412,3.011-0.615c0.033-0.023,0.073-0.037,0.104-0.062
			c6.619-5.178,6.267-11.688,6.694-20.863c0.312-6.692,1.667-37.843,3.063-56.28c0.495-6.536,1.18-13.119,1.18-14.162
			C112.694,110.238,115.48,109.433,108.033,107.074z"/>
		<path fill="#A0B2D5" d="M81.318,111.53c-0.071-0.526-0.135-1.053-0.193-1.579C81.196,110.478,81.259,111.004,81.318,111.53z"/>
	</g>
	<g>
		<path fill="#2F6767" d="M108.62,193.772c-7.699,0.609-16.267,3.521-25.041,2.918c-10.189-0.701-19.777-2.211-28.267-4.307
			c-0.274,25.616,5.106,43.881,8.07,68.954c0.979,8.287,1.843,15.721,2.427,21.43c0.951,9.297,2.403,28.076,3.636,44.717
			c0.386,5.201-0.394,15.18-0.357,16.365c0.064,2.15,1.056,2.412,1.188,4.25c0.077,1.064-0.881,2.514-0.813,3.455
			c0.064,0.908,1.611,1.48,1.126,2.094c-0.506,0.639-3.25,2.826-1,4.861c1.964,1.775,12.758-0.25,12.758-0.25
			s10.358,0.693,11.964-1.316c0.995-1.244-1.034-3.906-2.465-4.305c-0.763-0.213,1.269-0.635,1.118-1.539
			c-0.161-0.975-1.382-3.334-1.562-4.438c-0.943-5.766-2.608-12.842-3.748-20.678c-2.321-15.963-4.499-33.754-4.297-43.328
			c0.132-6.229-0.968-12.086-1.396-21.566c-0.578-12.75-0.894-26.338-0.948-34.99c-0.012-1.975,1.369-4.664,4.152-6.25
			c2.05-1.166,4.158,6.795,4.902,8.918c4.876,13.906,11.383,43.189,13.617,58c1.998,13.236,5.152,46.207,6.691,62.83
			c0.122,1.316-1.137,2.947-1.036,4.041c0.124,1.359,1.455,1.996,1.402,2.83c-0.101,1.57-0.252,2.377,0.537,3.039
			c2.045,1.719,6.792-1.771,9.019-3.074c2.371-1.389,5.984-8.9,11.54-7.195c1.143,0.35,2.028-1,1.252-3.014
			c-0.263-0.682-2.235-0.854-2.407-1.85c-0.144-0.836,0.324-1.914,0.157-2.846c-0.24-1.342-1.127-2.582-1.408-4.094
			c-3.18-17.096-8.712-44.09-10.853-57.668C115.28,258.853,108.142,224.798,108.62,193.772z"/>
		<path fill="#2F6767" d="M108.62,193.772c-7.699,0.609-16.267,3.521-25.041,2.918c-10.189-0.701-19.777-2.211-28.267-4.307
			c-0.274,25.616,5.106,43.881,8.07,68.954c0.979,8.287,1.843,15.721,2.427,21.43c0.951,9.297,2.403,28.076,3.636,44.717
			c0.386,5.201-0.394,15.18-0.357,16.365c0.064,2.15,1.056,2.412,1.188,4.25c0.077,1.064-0.881,2.514-0.813,3.455
			c0.064,0.908,1.611,1.48,1.126,2.094c-0.506,0.639-3.25,2.826-1,4.861c1.964,1.775,12.758-0.25,12.758-0.25
			s10.358,0.693,11.964-1.316c0.995-1.244-1.034-3.906-2.465-4.305c-0.763-0.213,1.269-0.635,1.118-1.539
			c-0.161-0.975-1.382-3.334-1.562-4.438c-0.943-5.766-2.608-12.842-3.748-20.678c-2.321-15.963-4.499-33.754-4.297-43.328
			c0.132-6.229-0.968-12.086-1.396-21.566c-0.578-12.75-0.894-26.338-0.948-34.99c-0.012-1.975,1.369-4.664,4.152-6.25
			c2.05-1.166,4.158,6.795,4.902,8.918c4.876,13.906,11.383,43.189,13.617,58c1.998,13.236,5.152,46.207,6.691,62.83
			c0.122,1.316-1.137,2.947-1.036,4.041c0.124,1.359,1.455,1.996,1.402,2.83c-0.101,1.57-0.252,2.377,0.537,3.039
			c2.045,1.719,6.792-1.771,9.019-3.074c2.371-1.389,5.984-8.9,11.54-7.195c1.143,0.35,2.028-1,1.252-3.014
			c-0.263-0.682-2.235-0.854-2.407-1.85c-0.144-0.836,0.324-1.914,0.157-2.846c-0.24-1.342-1.127-2.582-1.408-4.094
			c-3.18-17.096-8.712-44.09-10.853-57.668C115.28,258.853,108.142,224.798,108.62,193.772z"/>
		<path fill="#345980" d="M108.62,193.772c-7.699,0.609-16.267,3.521-25.041,2.918c-10.189-0.701-19.777-2.211-28.267-4.307
			c-0.274,25.616,5.106,43.881,8.07,68.954c0.979,8.287,1.843,15.721,2.427,21.43c0.951,9.297,2.403,28.076,3.636,44.717
			c0.386,5.201-0.394,15.18-0.357,16.365c0.064,2.15,1.056,2.412,1.188,4.25c0.077,1.064-0.881,2.514-0.813,3.455
			c0.064,0.908,1.611,1.48,1.126,2.094c-0.506,0.639-3.25,2.826-1,4.861c1.964,1.775,12.758-0.25,12.758-0.25
			s10.358,0.693,11.964-1.316c0.995-1.244-1.034-3.906-2.465-4.305c-0.763-0.213,1.269-0.635,1.118-1.539
			c-0.161-0.975-1.382-3.334-1.562-4.438c-0.943-5.766-2.608-12.842-3.748-20.678c-2.321-15.963-4.499-33.754-4.297-43.328
			c0.132-6.229-0.968-12.086-1.396-21.566c-0.578-12.75-0.894-26.338-0.948-34.99c-0.012-1.975,1.369-4.664,4.152-6.25
			c2.05-1.166,4.158,6.795,4.902,8.918c4.876,13.906,11.383,43.189,13.617,58c1.998,13.236,5.152,46.207,6.691,62.83
			c0.122,1.316-1.137,2.947-1.036,4.041c0.124,1.359,1.455,1.996,1.402,2.83c-0.101,1.57-0.252,2.377,0.537,3.039
			c2.045,1.719,6.792-1.771,9.019-3.074c2.371-1.389,5.984-8.9,11.54-7.195c1.143,0.35,2.028-1,1.252-3.014
			c-0.263-0.682-2.235-0.854-2.407-1.85c-0.144-0.836,0.324-1.914,0.157-2.846c-0.24-1.342-1.127-2.582-1.408-4.094
			c-3.18-17.096-8.712-44.09-10.853-57.668C115.28,258.853,108.142,224.798,108.62,193.772z"/>
		<g>
			<path opacity="0.5" fill="#263C54" d="M131.835,349.237c1.143,0.35,2.028-1,1.252-3.014c-0.263-0.682-2.235-0.854-2.407-1.85
				c-0.144-0.836,0.324-1.914,0.157-2.846c-0.24-1.342-1.127-2.582-1.408-4.094c-3.18-17.096-8.712-44.09-10.853-57.668
				c-0.625-3.967-1.389-8.408-2.213-13.211c1.019,5.961,2.183,17.545-1.901,16.043c-2.562-0.941-5.783-11.572-7.042-13.91
				c-3.1-5.754-9.649-28.68-11.207-35.256c-3.514-14.834-13.414-32.463-6.449-5.586c0.115,0.363,0.218,0.682,0.301,0.92
				c4.876,13.906,11.383,43.189,13.617,58c1.998,13.236,5.152,46.207,6.691,62.83c0.122,1.316-1.137,2.947-1.036,4.041
				c0.124,1.359,1.455,1.996,1.402,2.83c-0.101,1.57-0.252,2.377,0.537,3.039c2.045,1.719,6.792-1.771,9.019-3.074
				C122.667,355.044,126.28,347.532,131.835,349.237z"/>
			<path opacity="0.5" fill="#263C54" d="M91.844,352.638c-0.763-0.213,1.269-0.635,1.118-1.539
				c-0.161-0.975-1.382-3.334-1.562-4.438c-0.943-5.766-2.608-12.842-3.748-20.678c-2.321-15.963-4.499-33.754-4.297-43.328
				c0.132-6.229-0.968-12.086-1.396-21.566c-0.542-11.949-0.853-24.635-0.935-33.303c-1.041,2.484-1.479,5.514-1.69,7.375
				c-0.71,6.24-0.079,12.506,0.38,18.74c0.428,5.826,0.566,11.652,1.076,17.467c-0.018,0.436-0.033,0.869-0.061,1.303
				c-0.238,3.867-0.839,9.553-4.639,11.67c-2.496,1.391-4.471-2.131-5.382-3.879c-3.14-6.02-4.351-13.227-5.539-19.848
				c-0.56-3.117-1.204-6.191-1.894-9.287c-0.762-3.424-1.531-6.996-2.864-10.295c1.062,6.432,2.116,13.082,2.971,20.305
				c0.979,8.287,1.843,15.721,2.427,21.43c0.951,9.297,2.403,28.076,3.636,44.717c0.386,5.201-0.394,15.18-0.357,16.365
				c0.064,2.15,1.056,2.412,1.188,4.25c0.077,1.064-0.881,2.514-0.813,3.455c0.064,0.908,1.611,1.48,1.126,2.094
				c-0.506,0.639-3.25,2.826-1,4.861c1.964,1.775,12.758-0.25,12.758-0.25s10.358,0.693,11.964-1.316
				C95.304,355.698,93.275,353.036,91.844,352.638z"/>
		</g>
		<g>
			<path fill="#263C54" d="M81.066,344.155c0.13,0.002,0.159-0.238,0.026-0.277c-3.287-0.9-8.764-1.592-11.674,1.668
				c0.303,0.771,0.711,1.305,0.83,2.365C72.188,343.95,78.136,344.13,81.066,344.155z"/>
			<path fill="#263C54" d="M87.952,345.171c1.523,1.086,3.482,2.406,4.516,4.445c-0.416-1.041-0.952-2.252-1.067-2.955
				c-0.084-0.514-0.18-1.049-0.274-1.584c-0.552-0.346-1.109-0.641-1.643-0.889c-2.283-1.051-4.604-2.041-6.976-2.654
				c-0.241-0.062-0.368,0.424-0.135,0.557C84.219,343.144,86.17,343.899,87.952,345.171z"/>
		</g>
		<g>
			<path fill="#263C54" d="M120.327,346.356c-0.14,0.07-0.056,0.258,0.088,0.221c3.225-0.871,9.73-2.74,12.744-0.113
				c-0.026-0.082-0.039-0.156-0.071-0.24c-0.263-0.682-2.235-0.854-2.407-1.85c-0.039-0.229-0.031-0.477-0.005-0.732
				C127.124,343.46,122.987,345.05,120.327,346.356z"/>
			<path fill="#263C54" d="M110.364,349.956c1.061-1.615,2.951-2.844,4.44-3.861c1.901-1.301,4.046-2.193,6.043-3.32
				c0.251-0.143,0.06-0.533-0.208-0.449c-2.635,0.826-5.178,1.963-7.671,3.145c-0.933,0.443-1.918,1.002-2.823,1.67
				c0.079,0.848,0.156,1.676,0.229,2.457C110.384,349.714,110.373,349.835,110.364,349.956z"/>
			<path fill="#263C54" d="M121.306,349.649c-2.635,0.828-5.178,1.963-7.671,3.146c-1.221,0.58-2.532,1.352-3.631,2.32
				c0.377,0.492,0.765,0.895,0.735,1.352c-0.037,0.588-0.082,1.066-0.082,1.473c0.926-1.949,3.129-3.369,4.813-4.521
				c1.901-1.301,4.046-2.193,6.043-3.318C121.765,349.958,121.574,349.565,121.306,349.649z"/>
		</g>
	</g>
	<g>
		<path fill="#FEC67A" d="M66.985,202.921c-2.102-1.861-4.291-4.738-7.332-5.385c-0.473-0.102-0.945-0.105-1.414-0.043
			c-0.037-0.016-0.073-0.029-0.109-0.047c-5.589-2.512-7.998-15.73-12.354-24.023c-1.957-3.726-6.727-8.666-9.765-11.59
			c-2.046-1.972-5.613-5.085-8.931-3.54c-4.025,1.872-3.396,7.738-2.34,10.791c1.969,5.704,3.73,4.754,7.532,12.029
			c2.083,3.986,18.148,18.504,19.069,23.286c0,0.002,0,0.002,0,0.004c-0.185,0.547-0.312,1.076-0.361,1.557
			c-0.232,2.305,2.416,6.068,3.273,7.768c1.196,2.369,2.394,3.502,4.227,4.355c1.923-1.357,3.837-2.557,5.251-3.605
			c2.779-2.064,4.751-4.822,7.298-7.021C69.95,205.692,68.528,204.288,66.985,202.921z"/>
		<path fill="#FFFFFF" d="M45.682,104.892c-3.332,3.531-9.998,24.184-12.088,29.892c-2.09,5.709-7.621,16.07-8.915,18.941
			c-3.717,8.25-4.592,11.375,1.187,18.916c7.166,9.353,6.29,9.524,6.781,10.478c0.49,0.954,16-6.354,15.057-8.189
			c-0.609-1.184-3.607-5.673-5.703-8.984c-0.322-0.509,0.582-2.692,0.314-3.129c-0.691-1.128-2.363-0.261-2.406-0.521
			c-0.068-0.422,2.463-0.855,2.69-1.652c0.198-0.697-1.362-0.984-0.989-1.889c0.43-1.048,1.118,0.347,1.459-0.963
			c1.906-7.335,7.012-16.942,8.083-18.535c3.201-4.762,2.159-14.365,0.792-21.482C49.04,102.664,45.682,104.892,45.682,104.892z"/>
		<path fill="#D8E0F2" d="M49.417,176.651c-0.437-1.257-1.43-2.586-2.348-3.454c-0.668-1.382-1.168-2.85-2.139-4.052
			c-0.076-0.309-0.332-0.611-0.61-0.823c-0.007-0.208-0.12-0.414-0.378-0.503c-1.243-0.428-2.67,0.392-3.775,0.91
			c-2.592,1.215-5.029,2.837-7.395,4.435c-1.095,0.738-3.59,1.806-4.561,3.181c-0.354,0.323-0.536,0.695-0.574,1.098
			c-0.071,0.073-0.108,0.183-0.051,0.28c0.018,0.028,0.037,0.055,0.055,0.083c0.057,0.715,0.439,1.474,0.867,2.117
			c1.153,1.736,2.674,3.137,3.974,4.753c0.115,0.451,0.222,0.912,0.366,1.379c0.299,0.974,1.059,1.855,2.17,1.644
			c1.777-0.339,3.268-1.531,4.719-2.544c0.193-0.135,0.398-0.261,0.605-0.386c0.127-0.075,0.255-0.147,0.382-0.223
			c1.128-0.637,2.377-1.204,3.424-1.962c0.314-0.173,0.624-0.354,0.942-0.521c0.7-0.365,2.234-1.01,3.318-1.845
			c0.113,0.015,0.234,0.003,0.363-0.07C50.293,179.288,50.111,177.897,49.417,176.651z"/>
		<path fill="#A0B2D5" d="M37.594,179.732c-0.664,0.604-1.404,1.131-2.016,1.792c-0.627,0.678-1.491,1.552-1.488,2.537
			c0,0.211-0.154,0.455-0.375,0.493c-0.045,0.008-0.092,0.02-0.137,0.019c-0.364-0.008-0.538-0.318-0.492-0.647
			c0.139-1.008,0.975-1.878,1.738-2.479c0.848-0.668,1.718-1.322,2.65-1.867C37.571,179.523,37.677,179.656,37.594,179.732z
			 M46.374,173.003c-2.995-2.081-6.832,1.388-8.711,3.547c-0.061,0.07,0.029,0.154,0.1,0.1c1.766-1.374,5.523-4.413,7.773-2.561
			C46.311,174.727,47.195,173.573,46.374,173.003z M32.311,176.319c-0.752,0.293-1.545,0.698-2.216,1.143
			c-0.593,0.394-1.413,1.18-1.38,1.958c0.031,0.762,1.253,0.726,1.16,0c-0.059-0.458,0.706-1.064,0.986-1.413
			c0.453-0.562,0.92-1.106,1.525-1.51C32.473,176.439,32.42,176.276,32.311,176.319z M40.956,157.794
			c-1.742-1.437-4.599-1.882-6.569-0.53c-0.019,0.012-0.019,0.045,0.007,0.05c0.809,0.152,1.65-0.081,2.469-0.105
			c1.324-0.04,2.367,0.471,3.232,1.447C40.622,159.251,41.559,158.292,40.956,157.794z M39.037,161.772
			c-0.929-0.703-2.7-0.379-3.812-0.387c-1.46-0.009-2.971,0.177-4.223,0.975c-0.08,0.051-0.029,0.188,0.066,0.156
			c1.66-0.541,3.283-0.465,4.975-0.086c0.932,0.209,2.119,0.686,2.993,0.165C39.372,162.396,39.314,161.982,39.037,161.772z
			 M29.44,163.188c-1.872,0.447-3.383,2.075-4.559,3.498c-0.806,0.977,1.041,1.787,1.201,0.498c0.223-1.801,2.122-2.877,3.422-3.846
			C29.577,163.284,29.536,163.165,29.44,163.188z M41.186,165.145c-1.896,0.168-3.445-0.309-5.293-0.695
			c-0.119-0.025-0.225,0.061-0.104,0.113c1.38,0.598,4.125,1.518,5.713,1.146C41.979,165.598,41.739,165.097,41.186,165.145z"/>
	</g>
	<g>
		<path fill="#FFFFFF" d="M95.212,362.036c0-1.174-6.52-2.125-14.562-2.125s-14.562,0.951-14.562,2.125c0,0.295,0,1.666,0,2.125
			c0,1.83,6.52,3.312,14.562,3.312s14.562-1.482,14.562-3.312C95.212,363.702,95.212,362.331,95.212,362.036z"/>
		<path fill="#F36B21" d="M66.362,361.786c-0.003,0.012,0.005,0.02,0.004,0.031c-0.096,0.154-0.069,0.393,0.145,0.436
			c4.013,0.811,8.268,1.336,12.366,1.031c4.448,0.279,16.255-0.693,16.336-1.248c0.538-3.701,0-9.271-14.562-8.271
			C70.153,354.485,67.075,358.726,66.362,361.786z"/>
		<path fill="#FDBA32" d="M84.775,355.419c-8.53-1.105-14.288,1.453-16.476,6.74c0.029,0.043,0.069,0.08,0.131,0.094
			c3.713,0.811,7.648,1.336,11.44,1.031c2.798,0.189,8.737-0.199,12.28-0.641C91.529,358.179,89.694,356.058,84.775,355.419z"/>
	</g>
	<g>
		<path fill="#345980" d="M58.639,230.274c-1.183-5.176-3.645-12.342-4.415-14.176c-0.77-1.832-0.769-2,1.077-3
			c1.848-1,11.39-5.832,13.391-11.498c0.574-1.627,2.154,0.332,2.77,1C72.077,203.267,69.056,225.618,58.639,230.274z"/>
		<path fill="#345980" d="M99.166,200.97c0.924-1.035,1.385-0.369,2.462,2.131c1.078,2.5,5.851,8.711,7.543,9.521
			c1.693,0.811,1.616,2.811,1,3.645c-0.615,0.832-0.386,8.062-0.08,10.688c-4.152-1.355-12.686-15.527-12.618-22.688
			C98.243,202.435,99.166,200.97,99.166,200.97z"/>
		<path fill="#4E7196" d="M71.491,202.677c-0.01-0.029-0.018-0.064-0.029-0.076c-0.615-0.668-2.195-2.627-2.77-1
			c-2.001,5.666-11.543,10.498-13.391,11.498c-1.846,1-1.847,1.168-1.077,3c0.063,0.152,0.144,0.355,0.229,0.576
			C60.19,214.481,67.751,208.284,71.491,202.677z"/>
		<path fill="#4E7196" d="M109.17,212.622c-1.692-0.811-6.465-7.021-7.543-9.521c-1.077-2.5-1.538-3.166-2.462-2.131
			c0,0-0.209,0.334-0.507,0.875c2.218,5.164,7.002,11.594,11.387,14.676c0.031-0.08,0.062-0.139,0.092-0.189
			c0.135-0.67,0.275-1.164,0.408-1.344c0.01-0.014,0.016-0.031,0.024-0.045C110.588,214.087,110.221,213.126,109.17,212.622z"/>
		<path fill="#4E7196" d="M87.526,200.329c0,0.98-0.789,13.801-1.466,15.293c-2.48,0-3.102-2-3.24-3.775
			c-0.167-2.143,0.761-9.742,0.985-11.926C84.031,197.739,87.526,200.329,87.526,200.329z"/>
		<path fill="#345980" d="M85.754,214.53c-0.726-0.213-1.353-0.875-1.5-2.762c-0.131-1.684,0.484-7.23,0.816-10.209
			c0.067-0.613,0.125-1.129,0.164-1.5c0.459,0.066,1.166,0.436,1.714,0.787C86.848,203.3,86.235,211.888,85.754,214.53z"/>
	</g>
	<g>
		<path fill="#6A110E" d="M111.463,139.26c0.359-6.719-1.167-31.597-5.016-33.285c-1.911-0.838-3.604-1.175-5.273-1.387
			c-2.004-0.254-6.409-1.515-6.476-0.776c0,10.75-7.956,25.122-9.067,25.122c0,0-9.584-8.947-15.645-19.001
			c-1.365-2.265-3.141-5.885-4.322-8.312c-0.385-0.92-3.068,0.282-5.594,0.223c-2.353-0.056-4.797-0.168-7.084,0.132
			c-1.508,0.198,1.234,8.063,1.762,12.265c1.889,15.026,1.601,22.546-3.406,28.32c1.023,4.912,2.051,10.276,2.813,15.429
			c1.515,10.239-0.478,25.26-0.479,28.611c-0.005,9.625,9.551,9.075,11.535,10.667c1.145,0.922,31.064,7,40.028,0.973
			c6.805-4.576,3.418-6.13,3.833-15.306C109.356,176.697,110.67,154.071,111.463,139.26z"/>
		<g>
			<path fill="#945122" d="M108.775,115.539c-1.767-3.262-3.126-8.163-6.971-9.522c-0.137-0.048-0.327,0.028-0.391,0.159
				c-1.554,3.206-4.595,6.128-5.149,9.748c-0.052,0.07-0.061,0.162-0.04,0.25c-0.002,0.018-0.006,0.034-0.008,0.052
				c-0.016,0.139,0.08,0.216,0.191,0.231c1.908,2.151,3.074,4.669,4.535,7.124c1.347,2.264,1.839,4.908,3.24,7.131
				c0.043,0.069,0.096,0.117,0.153,0.152c0.132,0.325,0.65,0.397,0.779-0.027c0.739-2.434,1.361-4.909,2.059-7.355
				c0.713-2.502,1.661-5.141,1.745-7.756C108.923,115.613,108.855,115.556,108.775,115.539z"/>
			<path fill="#945122" d="M72.293,119.584c-0.002-0.004-0.004-0.007-0.006-0.01c0.135-0.333-0.084-0.631-0.354-0.715
				c-2.65-5.4-5.876-10.647-9.094-15.71c-0.072-0.115-0.292-0.081-0.276,0.075c0.002,0.021,0.009,0.039,0.011,0.06
				c-0.027,0.02-0.059,0.029-0.078,0.064c-1.274,2.278-2.299,4.67-3.746,6.859c-0.991,1.502-2.139,3.105-2.647,4.852
				c-0.019,0.062-0.017,0.117-0.016,0.172c-0.051,0.054-0.078,0.131-0.034,0.211c1.965,3.54,4.277,6.876,6.227,10.44
				c0.477,0.873,2.401,5.093,3.887,4.503c0.191-0.075,0.262-0.248,0.178-0.437c-0.062-0.141-0.152-0.275-0.252-0.41
				c1.99-2.939,4.168-5.984,5.799-9.166C72.198,120.307,72.473,119.959,72.293,119.584z"/>
			<path fill="#945122" d="M95.735,149.004c-0.408-0.781-0.927-1.522-1.3-2.33c-0.666-1.439-1.207-2.936-1.855-4.385
				c-1.504-3.362-3.964-6.403-6.013-9.449c-0.158-0.234-0.604-0.09-0.486,0.205c0.018,0.043,0.039,0.082,0.057,0.125
				c-0.041,0.014-0.08,0.033-0.107,0.073c-1.711,2.532-3.563,4.979-5.057,7.647c-1.449,2.592-2.771,5.44-5.101,7.369
				c-0.376,0.311-0.033,0.787,0.36,0.789c0.33,1.389,1.255,2.528,1.957,3.797c1.221,2.206,2.293,4.639,3.132,7.015
				c0.604,1.716,1.302,6.97,3.458,7.446c0.134,0.029,0.23-0.048,0.258-0.159c0.073-0.013,0.142-0.053,0.188-0.144
				c1.408-2.758,3.562-4.955,5.08-7.631c1.854-3.271,3.875-6.439,5.832-9.65C96.358,149.362,96.059,149.033,95.735,149.004z"/>
			<path fill="#945122" d="M72.047,181.789c-1.855-3.42-3.078-7.182-4.145-10.913c-0.42-1.469-0.99-5.307-2.539-6.459
				c0.033-0.082,0.076-0.162,0.108-0.244c0.099-0.257-0.274-0.452-0.45-0.263c-0.072,0.077-0.133,0.166-0.203,0.245
				c-0.105,0.01-0.179,0.104-0.174,0.209c-1.445,1.682-2.594,3.691-3.861,5.501c-1.558,2.224-3.15,4.42-4.777,6.594
				c-0.105,0.143-0.119,0.282-0.078,0.402c-0.025,0.058-0.039,0.122-0.025,0.199c1.061,5.482,3.027,10.881,5.176,16.021
				c0.152,0.366,0.623,0.389,0.768,0c0.981-2.635,3.697-4.988,5.954-6.593c1.698-1.207,3.507-2.156,4.557-4.032
				C72.53,182.147,72.31,181.861,72.047,181.789z"/>
			<path fill="#945122" d="M108.771,182.106c-0.281-1.333-2.568-12.678-4.638-14.275c0.007-0.018,0.015-0.035,0.021-0.053
				c0.072-0.188-0.204-0.336-0.333-0.193c-0.018,0.02-0.032,0.043-0.05,0.062c-0.069-0.014-0.138-0.014-0.206-0.001
				c-0.043,0.008-0.07,0.062-0.058,0.101c0.018,0.055,0.038,0.109,0.057,0.164c-1.755,2.156-2.537,5.265-3.628,7.76
				c-1.463,3.35-3.738,6.382-5.89,9.312c-0.337,0.458,0.362,0.917,0.743,0.57c1.775,1.449,2.915,3.213,4.071,5.225
				c0.811,1.408,1.213,3.874,2.477,4.918c0.229,0.191,0.489,0.119,0.612-0.062c0.005,0.271,0.045,0.535,0.142,0.783
				c0.082,0.211,0.438,0.271,0.49,0c0.433-2.258,1.778-4.18,2.855-6.174c0.911-1.688,2.189-4.028,2.403-6.079
				c0.203-0.493,0.391-0.992,0.529-1.495C108.611,182.63,108.833,182.397,108.771,182.106z"/>
			<path fill="#6A504D" d="M110.2,147.144c-0.005-2.409-0.808-4.828-1.569-7.08c-0.862-2.552-1.896-5.264-3.308-7.59
				c0.001-0.008,0.004-0.016,0.005-0.023c0.042-0.233-0.105-0.4-0.28-0.454c-0.003-0.005-0.005-0.01-0.008-0.015
				c-0.14-0.217-0.511-0.082-0.428,0.181c0.003,0.011,0.008,0.021,0.012,0.031c-0.009,0.02-0.021,0.033-0.026,0.056
				c-0.811,3.183-2.02,6.237-3.494,9.173c-1.419,2.821-3.388,5.334-4.378,8.362c-0.056,0.169,0.098,0.29,0.246,0.298
				c-0.005,0.025-0.008,0.053,0.005,0.082c1.306,3.095,2.587,6.254,3.679,9.432c0.779,2.268,1.242,5.223,2.913,7.053
				c0.012,0.02,0.025,0.035,0.041,0.051c0.021,0.021,0.036,0.049,0.058,0.07c0.251,0.26,0.569,0.098,0.665-0.164
				c0.47-0.557,0.629-1.411,0.834-2.082c0.54-1.771,1.119-3.521,1.778-5.253c1.453-3.821,2.502-7.733,3.49-11.7
				C110.482,147.378,110.357,147.212,110.2,147.144z"/>
			<path fill="#6A504D" d="M93.291,184.006c-1.309-2.639-2.175-5.432-3.4-8.103c-1.342-2.924-3.528-5.37-4.587-8.433
				c-0.107-0.312-0.559-0.514-0.808-0.213c-2.893,3.482-5.749,7.076-8.376,10.765c-0.635,0.892-2.562,2.783-2.764,4.134
				c-0.014-0.021-0.025-0.044-0.039-0.065c-0.154-0.248-0.588-0.089-0.486,0.204c1.874,5.373,5.061,10.479,7.838,15.424
				c0.165,0.295,0.526,0.289,0.762,0.1c1.205-0.975,2.037-2.283,3.127-3.373c1.138-1.139,2.577-2.008,3.753-3.124
				c1.905-1.808,3.823-3.732,5.213-5.98c0.089-0.074,0.151-0.173,0.175-0.289c0.064-0.109,0.135-0.215,0.196-0.326
				C94.141,184.284,93.659,183.884,93.291,184.006z"/>
			<path fill="#6A504D" d="M72.157,140.922c-1.879-3.347-4.152-6.469-6.447-9.54c-0.221-0.295-0.666-0.276-0.787,0.103
				c-1.043,3.239-2.975,6.112-4.595,9.082c-1.009,1.851-2.644,3.439-2.689,5.658c-0.002,0.104,0.067,0.162,0.147,0.182
				c0.637,2.389,1.902,4.559,3.109,6.701c1.734,3.074,2.787,6.277,3.918,9.603c0.133,0.392,0.668,0.397,0.799,0
				c0.859-2.612,2.801-4.442,4.414-6.587c1.852-2.463,2.857-5.438,4.773-7.857c0.281,0.084,0.662-0.146,0.592-0.534
				C74.956,145.278,73.356,143.057,72.157,140.922z"/>
			<path fill="#43130F" d="M109.188,156.628c-1.38-3.286-2.848-6.545-4.358-9.781c0.51-1.239,1.031-2.472,1.59-3.687
				c1.071-2.33,2.147-4.594,2.538-7.152c0.024-0.158-0.185-0.22-0.24-0.066c-1.257,3.424-2.74,6.803-4.232,10.169
				c-0.881-1.876-1.771-3.746-2.678-5.604c-1.545-3.17-3.333-6.216-5.139-9.252c0.077-0.155,0.158-0.307,0.234-0.463
				c1.748-3.591,3.35-7.254,5.088-10.851c0.37-0.766,0.757-1.541,1.144-2.322c1.674,2.853,3.189,5.933,5.122,8.602
				c0.146,0.202,0.543,0.087,0.436-0.184c-1.142-2.886-3.023-5.552-4.607-8.213c-0.193-0.324-0.378-0.655-0.567-0.983
				c1.264-2.571,2.489-5.219,3.168-7.929c0.062-0.246-0.302-0.418-0.422-0.178c-1.154,2.325-2.262,4.682-3.357,7.045
				c-1.293-2.29-2.547-4.619-3.998-6.793c-0.134-0.201-0.515-0.076-0.414,0.174c1.049,2.602,2.583,5.028,4.034,7.438
				c-2.118,4.591-4.187,9.213-6.361,13.765c-0.004,0.008-0.009,0.018-0.014,0.025c-1.207-2.027-2.413-4.056-3.552-6.118
				c-0.087-0.157-0.352-0.05-0.293,0.124c0.827,2.455,2.038,4.744,3.349,6.987c-2.81,5.688-6.168,10.989-9.699,16.22
				c-0.68-1.32-1.355-2.644-2.049-3.958c-2.336-4.429-4.65-8.789-7.201-13.025c0.889-1.51,1.681-3.062,2.275-4.692
				c0.113-0.308-0.354-0.48-0.514-0.217c-0.788,1.301-1.589,2.588-2.398,3.868c-1.467-2.388-3.012-4.735-4.693-7.026
				c-1.641-2.237-3.317-4.452-5-6.661c0.723-1.24,1.407-2.502,2.004-3.814c0.104-0.228-0.195-0.409-0.338-0.197
				c-0.742,1.109-1.449,2.242-2.148,3.381c-0.556-0.729-1.109-1.461-1.667-2.188c-2.033-2.654-4.166-5.33-6.897-7.297
				c-0.222-0.16-0.464,0.183-0.283,0.367c3.014,3.097,5.74,6.463,8.357,9.914c-0.817,1.345-1.624,2.694-2.453,4.03
				c-1.443,2.328-3.385,4.553-3.904,7.311c-0.059,0.312,0.406,0.564,0.55,0.232c1.671-3.876,4.124-7.322,6.296-10.931
				c1.754,2.333,3.464,4.7,5.178,7.048c1.592,2.182,3.05,4.426,4.438,6.709c-2.309,3.621-4.68,7.188-7.053,10.799
				c-0.741,1.128-1.424,2.297-2.082,3.479c-2.025-4.223-4.242-8.337-6.867-12.178c-0.245-0.357-0.808-0.041-0.588,0.344
				c2.454,4.286,4.674,8.652,6.779,13.07c-0.578,1.074-1.142,2.156-1.7,3.234c-1.372,2.65-3.132,5.362-4.06,8.197
				c-0.086,0.261,0.295,0.503,0.477,0.277c1.686-2.1,2.723-4.816,3.941-7.211c0.595-1.168,1.203-2.329,1.824-3.482
				c2.602,5.516,5.033,11.11,7.488,16.75c0.105,0.244,0.219,0.486,0.326,0.73c-1.857,2.586-3.685,5.189-5.421,7.849
				c-1.404,2.15-2.746,4.305-4.182,6.401c-1.476-5.207-3.413-10.279-5.083-15.424c-0.092-0.285-0.501-0.168-0.443,0.121
				c1.079,5.51,3.303,10.756,4.854,16.142c0.01,0.032,0.018,0.066,0.027,0.099c-0.713,1.004-1.447,1.995-2.242,2.954
				c-2.268,2.733-5.096,5.356-6.541,8.651c-0.222,0.505,0.516,0.948,0.748,0.438c1.564-3.436,4.599-6.212,6.986-9.091
				c0.475-0.572,0.92-1.164,1.361-1.759c1.025,4.161,1.65,9.188,4.312,12.472c0.195,0.24,0.6-0.018,0.51-0.297
				c-0.731-2.257-1.787-4.374-2.457-6.669c-0.62-2.126-1.122-4.286-1.694-6.426c1.463-2.062,2.792-4.215,4.14-6.363
				c1.746-2.782,3.615-5.498,5.531-8.188c2.117,4.759,4.383,9.437,6.75,14.079c0.686,1.346,1.367,2.705,2.059,4.065
				c-1.349,1.627-2.66,3.278-3.923,4.979c-1.524,2.053-3.51,3.536-5.033,5.533c-0.266,0.348,0.337,0.812,0.607,0.469
				c1.394-1.778,3.243-3.073,4.636-4.89c1.359-1.774,2.738-3.521,4.145-5.247c1.873,3.663,3.824,7.312,6.099,10.692
				c0.289,0.428,0.938,0.057,0.695-0.406c-1.979-3.775-3.997-7.514-5.99-11.262c0.331-0.397,0.648-0.805,0.986-1.199
				c3.763-4.387,6.841-9.118,9.696-14.135c2.307,5.02,4.567,10.039,7.057,14.953c-0.199,0.309-0.382,0.628-0.587,0.933
				c-1.411,2.092-2.884,4.137-4.23,6.271c-1.087,1.722-2.879,3.474-3.396,5.451c-0.062,0.236,0.242,0.43,0.418,0.242
				c1.225-1.297,2.231-2.958,3.165-4.476c1.491-2.423,3.111-4.747,4.717-7.094c0.112-0.164,0.224-0.335,0.336-0.502
				c1.161,2.263,2.368,4.503,3.663,6.706c0.241,0.41,0.851,0.048,0.635-0.371c-1.245-2.416-2.461-4.844-3.668-7.276
				c2.289-3.503,4.437-7.459,5.277-11.489c0.05-0.236-0.268-0.314-0.354-0.098c-1.479,3.704-3.255,7.314-5.354,10.715
				c-2.437-4.931-4.82-9.884-7.203-14.838c2.689-4.822,5.027-9.823,7.072-14.952c0.569-1.428,1.131-2.862,1.707-4.292l0.011,0.023
				c1.323,2.895,2.34,6.322,4.13,8.951C108.741,157.227,109.356,157.03,109.188,156.628z M74.473,163.262
				c-2.521-5.775-4.904-11.738-7.621-17.516c0.757-1.367,1.539-2.721,2.367-4.049c2.125-3.411,4.773-6.686,6.942-10.178
				c2.605,4.383,4.95,8.906,7.349,13.451c0.617,1.171,1.232,2.344,1.848,3.516c-0.725,1.065-1.451,2.13-2.185,3.195
				c-2.767,4.02-5.687,7.948-8.55,11.912C74.575,163.483,74.522,163.374,74.473,163.262z M94.361,167.505
				c-2.941,5.265-6.194,10.163-10.112,14.751c-0.084,0.098-0.162,0.198-0.244,0.296c-3.148-5.931-6.225-11.89-8.974-18.055
				c2.965-4.132,6.02-8.212,8.89-12.38c0.636-0.922,1.266-1.844,1.893-2.766c3.055,5.824,6.052,11.678,8.821,17.646
				C94.542,167.167,94.455,167.337,94.361,167.505z M101.942,151.917c-2.062,4.841-4.328,9.594-6.842,14.217
				c-2.846-5.912-5.706-11.816-8.693-17.664c3.537-5.246,6.884-10.554,9.759-16.222c1.379,2.307,2.832,4.577,4.064,6.937
				c1.36,2.604,2.576,5.291,3.796,7.966C103.321,148.741,102.619,150.329,101.942,151.917z"/>
		</g>
		<path fill="#993932" d="M96.946,104.111c-1.795,3.933-2.7,8.365-4.323,12.402c-1.681,4.183-3.427,9.552-6.608,12.888
			c-4.457-3.238-7.711-7.793-11.197-11.988c-4.092-4.922-6.434-10.55-9.675-15.966c-0.19-0.318-0.603-0.09-0.558,0.234
			c0.837,5.888,5.262,11.357,8.811,15.921c3.588,4.613,7.308,9.513,12.086,12.955c0.283,0.204,0.555,0.109,0.727-0.094
			c0.157,0.031,0.33,0.004,0.486-0.132c3.251-2.823,4.783-7.72,6.418-11.573c1.857-4.376,4.318-9.671,4.409-14.491
			C97.527,103.976,97.077,103.825,96.946,104.111z"/>
		<path fill="#993932" d="M53.393,102.55c-0.064-0.214-0.346-0.154-0.368,0.05c-0.36,3.372,1.087,6.806,1.801,10.06
			c0.796,3.631,1.132,7.384,1.368,11.089c0.205,3.219,0.137,6.462-0.324,9.656c-0.216,1.492-0.604,2.949-1.08,4.378
			c-0.205,0.612-1.369,3.845-2.246,4.595c-0.268-0.045-0.559,0.076-0.639,0.402c-0.014,0.057-0.027,0.114-0.041,0.172
			c-0.094,0.383,0.18,0.751,0.578,0.759c1.658,0.032,3.086-4.319,3.562-5.593c1.258-3.354,1.525-7.086,1.506-10.635
			C57.465,118.993,55.817,110.659,53.393,102.55z"/>
	</g>
	<g>
		<path fill="#A0B2D5" d="M74.79,114.654c-3.597-2.511-11.339-14.145-12.707-14.668c2.412-2.793,7.598-4.695,9.44-4.649
			c-1.843,3.63,9.435,10.017,9.435,10.017s-0.025,0.025-0.035,0.037c0.054,0.003,0.106,0.041,0.11,0.119
			c0.124,2.775,0.823,5.557,1.173,8.313c0.281,2.206,0.469,4.426,0.686,6.64c0.203,2.073,0.395,4.151,0.638,6.221
			c-0.343-0.397-0.712-0.729-1.116-1.037c-0.119-1.727-0.215-3.454-0.318-5.184c-0.014-0.22-0.035-0.439-0.049-0.659
			c-0.407-2.269-0.6-4.589-1.018-6.858c-0.383-2.077-0.007-1.415-1.6-0.797C78.792,112.395,74.576,113.576,74.79,114.654z
			 M85.239,105.39c0,0-0.937,3.312,0.691,4.87c1.803,1.727,6.215,1.821,6.824,4.236c3.459-4.089,7.314-12.077,7.314-12.077
			s-7.432-4.334-9.822-3.766C91.144,102.705,85.239,105.39,85.239,105.39z M85.414,115.062c-0.308,0.051-0.521,0.219-0.642,0.44
			c-0.48,0.06-0.592,0.862-0.261,1.326c0.565,0.793,1.558,0.612,1.892-0.288C86.686,115.779,86.159,114.937,85.414,115.062z
			 M86.514,125.898c-0.633-0.431-1.197,0.265-1.336,0.878c-0.072,0.326,0.094,0.646,0.391,0.743
			c0.051,0.017,0.096,0.018,0.143,0.028c0.187,0.129,0.424,0.18,0.633,0.211c0.199,0.03,0.395-0.016,0.502-0.221
			C87.147,126.963,87.048,126.261,86.514,125.898z"/>
		<path fill="#FFFFFF" d="M80.958,105.353c0,0-5.637,2.756-7.41,6.387c-2.705-2.555-10.097-11.27-11.465-11.754
			c2.412-2.586,7.058-5.02,9.44-4.652C69.68,98.695,80.958,105.353,80.958,105.353z M85.239,105.39c0,0,7.516,3.346,8.185,6.758
			c4.05-4.219,6.646-9.729,6.646-9.729s-7.432-4.291-9.822-3.77C91.144,102.375,85.239,105.39,85.239,105.39z"/>
		<g>
			<g>
				<path fill="#EF4435" d="M96.213,115.225c-1.602,1.448-9.03-3.033-9.03-3.033s-2.32,0.731-2.869,0.224
					c-0.627-0.58-0.272-3.562-0.272-3.562s-0.654-1.841-0.136-2.452c0.484-0.576,2.978-0.101,2.978-0.101s7.555-3.04,9.186-1.643
					c0.617,0.527-0.415,4.054-0.415,4.054S96.823,114.673,96.213,115.225z"/>
				<path fill="#EF4435" d="M71.352,117.571c2.108,0.844,9.071-4.77,9.071-4.77s2.403,0.31,2.866-0.294
					c0.524-0.688-0.295-3.584-0.295-3.584s0.526-1.33-0.083-1.895c-0.572-0.531-2.976,0.174-2.976,0.174s-8.544-3.036-9.93-1.309
					c-0.523,0.65,0.642,4.365,0.642,4.365S69.691,116.907,71.352,117.571z"/>
				<path fill="#EF4435" d="M86.767,112.473c-0.521,0.599-5.562,1.083-6.149,0.585c-0.67-0.57-0.336-3.614-0.336-3.614
					s-0.854-2.739-0.316-3.376c0.505-0.599,5.794-0.862,6.402-0.326c0.629,0.557,0.191,3.254,0.191,3.254
					S87.342,111.811,86.767,112.473z"/>
			</g>
		</g>
	</g>
	<path fill="#FCBD73" d="M73.14,203.007c-0.409,0.039-0.849-0.078-1.265-0.09c-0.008,0.002-0.846-0.066-2.153-0.32
		c-1.186-0.23-4.865-1.725-6.19-2.941c-0.074-0.041-0.141,0.342-0.193,0.871c0.211,0.273,0.4,0.559,0.588,0.908
		c0.313,0.586,0.383,1.078,0.41,1.604c0.188,0.309,0.367,0.625,0.549,0.938c2.418,1.113,5.8,2.883,7.557,2.094
		c0.397-0.178,0.756-0.762,0.988-1.529C73.559,204.112,73.338,202.985,73.14,203.007z"/>
	<g>
		<path fill="#263C54" d="M92.75,351.683c-3.25-1.121-7.409-0.945-10.216-0.574c-0.155,0.02-0.136,0.227,0.014,0.236
			c2.991,0.186,8.744,0.455,11.352,3.004c-0.562-0.818-1.375-1.521-2.056-1.711C91.269,352.478,92.281,352.198,92.75,351.683z"/>
		<path fill="#263C54" d="M70.207,354.062c1.306-1.059,3.021-1.779,4.424-2.4c2.106-0.932,4.377-1.418,6.546-2.162
			c0.273-0.094,0.157-0.514-0.121-0.48c-2.742,0.334-5.449,0.986-8.116,1.695c-1.082,0.287-2.251,0.697-3.335,1.256
			c0.379,0.676,1.39,1.164,0.983,1.678C70.508,353.747,70.37,353.892,70.207,354.062z"/>
	</g>
	<path fill="#43130F" d="M116.653,47.027c0.025-0.751-0.22-0.885-0.908-0.908c-0.687-0.024-6.688-0.234-11.128-0.389
		c-4.439-0.155-8.777,0.382-10.686,1.254c-1.907,0.873-3.724,0.872-4.599,0.842c-0.875-0.031-2.687-0.156-4.528-1.16
		c-1.844-1.004-6.133-1.842-10.573-1.997c-4.438-0.155-10.44-0.364-11.128-0.389s-0.942,0.093-0.968,0.843
		c-0.026,0.75-0.388,3.93,0.643,4.905c1.029,0.976,1.258,1.608,1.478,2.493c0.219,0.883,1.21,8.367,10.202,8.994
		s11.484-6.234,11.905-7.533c0.422-1.301,2.068-1.869,2.821-1.905c0.748,0.089,2.352,0.771,2.682,2.097
		c0.329,1.326,2.337,8.345,11.352,8.346c9.013,0.002,10.523-7.395,10.804-8.261c0.281-0.866,0.553-1.483,1.648-2.384
		S116.626,47.777,116.653,47.027z M84.649,54.673c-1.608,4.825-6.711,5.773-9.712,5.669c-8.933-0.562-8.812-9.384-8.74-11.446
		c0.072-2.063,0.834-2.351,3.535-2.632c2.701-0.28,9.199,0.071,12.665,1.194C85.864,48.581,86.257,49.846,84.649,54.673z
		 M102.82,61.316c-3.001-0.105-8.024-1.406-9.293-6.333c-1.268-4.927-0.786-6.162,2.75-7.04c3.536-0.879,10.042-0.776,12.718-0.308
		c2.675,0.469,3.414,0.808,3.343,2.872C112.265,52.57,111.77,61.378,102.82,61.316z"/>
</g>
</svg>
