<?xml version="1.0" encoding="utf-8"?>
<!-- Generator: Adobe Illustrator 15.1.0, SVG Export Plug-In . SVG Version: 6.00 Build 0)  -->
<!DOCTYPE svg PUBLIC "-//W3C//DTD SVG 1.1//EN" "http://www.w3.org/Graphics/SVG/1.1/DTD/svg11.dtd">
<svg version="1.1" id="Layer_1" xmlns="http://www.w3.org/2000/svg" xmlns:xlink="http://www.w3.org/1999/xlink" x="0px" y="0px"
	 width="174.74px" height="400px" viewBox="0 0 174.74 400" enable-background="new 0 0 174.74 400" xml:space="preserve">
<g>
	
		<ellipse transform="matrix(0.9806 -0.1962 0.1962 0.9806 -71.1379 27.8609)" fill="#E6D9A1" cx="105.025" cy="372.913" rx="35.228" ry="13.081"/>
	
		<ellipse transform="matrix(0.9845 -0.1755 0.1755 0.9845 -62.8453 18.1591)" fill="#E6D9A1" cx="71.234" cy="364.355" rx="32.348" ry="12.013"/>
	<path fill="#352513" d="M114.857,55.638c-0.055-0.352-0.641-0.344-0.701,0c-0.096,0.551-0.188,1.096-0.281,1.644
		c-3.926-2.572-13.871,5.274-16.873,7.138c-6.424,3.99-17.369,8.27-20.998,15.649c-0.07-0.224-0.145-0.448-0.229-0.668
		c-0.213-0.547-0.961-0.594-1.157,0c-1.216,3.667-1.672,7.502-3.03,11.149c-0.726,1.949-3.782,4.284-5.806,6.258
		c-1.963,1.915-4.941,5.678-5.852,7.854c-0.719,1.717,3.633-1.371,5.072-1.628c5.566-0.994,10.686-1.228,16.408-1.199
		c6.588,0.032,13.035-3.059,18.256-6.888c1.521-1.117,2.936-2.376,4.25-3.743c-0.562,1.772-0.824,3.537-0.564,5.125
		c0.051,0.31,0.479,0.247,0.564,0c0.939-2.697,1.527-5.315,2.783-7.936c0.248-0.516,0.508-1.023,0.773-1.528
		C113.752,77.921,116.443,66.056,114.857,55.638z"/>
	<path fill="#AE2E43" d="M85.26,92.924c-0.047,0.004-0.09,0.016-0.135,0.021c-3.066-1.7-7.661-0.025-10.562,1.284
		c-4.211,1.901-7.847,5.403-9.671,9.65c-0.686,1.597,0.717,3.146,2.363,2.363c2.424-1.152,4.84-2.11,7.446-2.755
		c2.138-0.529,4.331-0.584,6.411-1.327c3.088-1.103,5.109-3.714,6.027-6.766C87.48,94.262,86.521,92.801,85.26,92.924z"/>
	<path fill="#EDB16C" d="M57.269,157.786c-2.946,5.456-4.866,11.348-7.019,17.125c-0.875,2.351-4.283,11.172-3.572,12.88
		c0.445,1.066,1.049,1.522,1.676,1.578c0.547,0.249,1.236,0.223,1.65-0.212c3.506-3.69,13.253-27.383,13.444-30.08
		C63.535,157.843,64.782,143.867,57.269,157.786z"/>
	<path fill="#37121B" d="M98.873,192.281c-2.062-7.485-7.033-15.523-13.902-19.654c-0.234-0.424-22.739-0.642-22.949-0.509
		c-6.688,4.21-9.212,14.059-9.439,21.103c-0.286,8.849,1.04,21.572,3.652,30.045c16.726-1.117,46.275,2.598,47.119-1.867
		C103.48,221.119,100.199,197.089,98.873,192.281z"/>
	<path fill="#B9CB33" d="M115.428,337.426c-0.352-19.566,0.902-40.182-3.148-59.398c-1.994-9.455-6.133-15.682-7.047-25.367
		c-0.871-9.242-1.043-21.529-2.174-30.73c-2.041-16.608-2.256-31.834-13.219-41.876c-9.275-8.496-12.14,6.755-11.846,14.362
		c0.398,10.352,3.09,20.275,5.062,30.363c1.955,10.002,7.131,19.779,8.123,32.156c0.535,6.695,10.99,27.965,13.115,60.428
		c0.582,8.91,2.068,43.898-0.748,52.398c-0.248,0.756,0.562,1.15,1.07,0.809c0.365,0.385,0.92,0.572,1.521,0.275
		c0.867-0.424,1.773-0.832,2.502-1.506C116.779,361.768,115.605,347.377,115.428,337.426z"/>
	<path fill="#B9CB33" d="M86.293,283.26c-1.896-9.066-5.853-15.039-6.715-24.324c-0.822-8.857-1.627-22.664-3.587-35.58
		c-2.447-16.12-2.155-30.512-12.649-40.155c-3.701-3.4-6.336-2.834-8.136-0.499c-0.524,6.085-0.442,12.159-0.41,18.322
		c0.023,4.445,0.012,8.897,0.204,13.34c0.076,1.725,0.268,3.477,0.451,5.234c0.455,2.148,0.908,4.299,1.326,6.457
		c1.859,9.592,2.979,10.586,7.695,24.686c0.378,1.129,2.597,12.727,3.303,14.49c3.09,7.713,7.604,24.266,9.225,49.594
		c0.545,8.539,1.917,42.074-0.793,50.217c-0.24,0.725,0.539,1.105,1.025,0.775c0.35,0.371,0.88,0.551,1.457,0.266
		c0.831-0.404,1.701-0.793,2.398-1.438c3.242-3.006,2.742-6.223,3.635-10.715c1.258-6.33,3.09-14.287,3-19.865
		C87.414,315.311,90.148,301.684,86.293,283.26z"/>
	<path fill="#FEC67A" d="M108.119,106.931c-2.174-3.186-6.133-4.019-9.924-4.342c-0.043-0.022-0.09-0.043-0.133-0.065
		c-1.949-1.046-3.633-2.577-4.908-4.385c-1.717-6.669,1.125-14.177,2.998-20.471c0.129-0.433-16.188,7.411-15.901,8.121
		c2.052,5.076,0.65,9.074-2.3,12.808c-3.465,1.752-7.258,3.01-10.926,4.033c-3.429,0.957-6.992,1.83-8.832,5.162
		c-1.576,2.856,0.365,6.294,1.551,8.854c1.161,2.507,1.783,5.4,2.529,8.221c0.289,6.096,0.322,12.207,0.653,18.301
		c0.327,6.022,0.638,12.836,3.214,18.38c-0.144,0.049-0.258,0.176-0.266,0.382c-0.071,1.933,0.07,3.866,0.393,5.77
		c0.181,9.104,1.947,19.732,6.639,27.454c-0.025,0.522,0.002,1.055,0.066,1.657c0.141,1.302,1.729,2.109,2.653,1.188
		c0.342-0.031,0.671-0.207,0.9-0.573c5.448-8.661,6.933-19.959,7.548-29.989c0.016-0.273-0.051-0.504-0.17-0.688
		c0.092-1.447-0.076-2.88-0.064-4.403c0.023-3.255,0.59-6.554,1.953-9.484c1.379-2.963,12.338-20.359,15.893-25.76
		c2.248-3.415,5.109-6.438,6.752-10.156C109.896,113.649,110.217,110.006,108.119,106.931z"/>
	<path fill="#D69B54" d="M92.693,92.022c0.355-4.91,2.143-9.932,3.459-14.355c0.129-0.433-0.508-0.589-0.664-0.183
		c-0.17,0.446-0.346,0.895-0.525,1.345c-0.221-0.594-0.891-1.025-1.521-0.576c-2.623,1.872-10.657,3.561-11.254,7.612
		c-0.244-0.255-0.505-0.503-0.804-0.737c-0.46-0.359-1.419-0.051-1.133,0.659c1.556,3.848,1.119,7.074-0.464,10.037
		C83.889,96.779,88.51,95.058,92.693,92.022z"/>
	<path fill="#542635" d="M98.873,192.281c-2.062-7.485-7.033-15.523-13.902-19.654c-0.234-0.424-22.739-0.642-22.949-0.509
		c-6.688,4.21-9.212,14.059-9.439,21.103c-0.092,2.862-1.669,2.086-0.947,5.415c1.316,6.083,2.832,18.897,4.6,24.63
		c2.062-1.986,12.396-2.109,20.305-2.123c14.473-0.021,26.805,0.312,26.814,0.256C103.48,221.119,100.199,197.089,98.873,192.281z"
		/>
	<path fill="#B09D76" d="M99.059,102.47c-0.258-0.033-0.525-0.035-0.785-0.056c-1.537,1.997-3.451,3.803-4.891,5.077
		c-3.316,2.936-7.893,5.295-12.436,6.345c-11.68,2.7-11.663-11.859-11.709-11.854c-6.938,0.933-10.081,2.234-11.824,5.992
		c-0.66,1.421-1.271,7.508-0.854,9.105c-4.207,6.502-2.451,11.287-0.25,18.561c5.324,28.799-4.713,39.01-3.382,49.26
		c0.15,1.159,1.686-0.637,2.454-1.284c0.437,0.07,0.869,0.133,1.299,0.195c2.967,2.658,19.83-0.686,22.092-1.365
		c0.697-0.209,1.389-0.419,2.08-0.625c1.353-0.123,2.672-0.318,3.871-0.959c0.416-0.077,0.828-0.158,1.252-0.211
		c2.148-0.265,3.771,0.693,5.594,1.434c0.84,1.135,1.682,2.267,2.5,3.423c0.49,0.695,1.033,1.743,1.713,2.545
		c0.693,1.552,1.322,3.36,2.283,4.807c0.316,0.996,0.635,1.99,0.967,2.981c0.381,1.896,0.725,3.803,1.121,5.679
		c0.221,1.052,1.656,0.887,1.961,0c0.035-0.103,0.078-0.191,0.119-0.284c0.104-0.014,0.207-0.042,0.309-0.106
		c0.193-0.122,0.344-0.271,0.469-0.434c0.283-0.012,0.562-0.126,0.797-0.419c2.166-2.713,0.623-7.082-0.76-10.582
		c-0.023-0.964-0.268-1.979-0.467-2.875c-0.234-2.9-1.83-5.916-2.742-8.593c0.023-0.071,0.037-0.146,0.033-0.228
		c-0.141-2.525-1.316-23.132-2.125-25.708c-0.109-0.549-0.217-1.099-0.312-1.651c0.119-0.087,0.217-0.208,0.227-0.391
		c0.184-3.373-0.684-6.654-0.418-10.074c0.037-0.476,0.088-0.953,0.15-1.43c0.404-1.334,0.789-2.683,1.377-3.946
		c1.492-3.199,3.6-6.122,5.52-9.068c2.133-3.272,4.439-7.062,5.033-11.035c0.109-0.061,0.211-0.14,0.279-0.277
		C112.648,108.309,107.051,103.5,99.059,102.47z"/>
	<path fill="#796948" d="M101.641,126.677c-3.9,2.883-9.535,7.155-14.205,8.323c-9.76,2.442-14.801-7.749-28.175-1.647
		c-0.132,0.06-0.15,0.27,0,0.294c1.326,0.212,2.669,0.431,4.024,0.646c0.018,0.028,0.035,0.058,0.064,0.076
		c3.77,2.351,7.469,3.71,10.664,6.99c2.809,2.881,4.76,5.495,8.469,7.275c4.074,1.955,8.691,2.692,13.033,3.814
		c0.893,0.23,1.756,0.572,2.604,0.964c-0.129-0.374-0.254-0.748-0.371-1.12c-0.109-0.549-0.217-1.099-0.312-1.651
		c0.119-0.087,0.217-0.208,0.227-0.391c0.184-3.373-0.684-6.654-0.418-10.074c0.037-0.476,0.088-0.953,0.15-1.43
		c0.404-1.334,0.789-2.683,1.377-3.946c1.492-3.199,3.6-6.122,5.52-9.068c0.635-0.973,1.279-1.997,1.895-3.053
		C104.695,124.07,103.229,125.502,101.641,126.677z"/>
	<path fill="#796948" d="M84.26,176.533c-3.497,0.774-6.59,2.407-10.178,2.941c-0.193,0.029-0.189,0.353,0,0.385
		c2.323,0.393,4.602-0.231,6.827-0.897c1.798-0.539,3.53-1.059,5.413-1.223c1.381-0.12,2.549,0.412,3.928,0.179
		c0.334-0.057,0.4-0.51,0.191-0.725C88.826,175.538,86.346,176.07,84.26,176.533z"/>
	<path fill="#796948" d="M104.795,197.268c-1.625-4.937-3.289-9.88-4.973-14.799c-2.006-5.861-6.998-12.378-13.688-12.762
		c-0.33-0.019-0.402,0.511-0.078,0.575c8.232,1.649,11.305,11.82,12.904,18.755c0.898,3.898,1.238,8.732,2.285,13.184
		c0.375-0.066,0.734-0.307,0.869-0.7c0.035-0.103,0.078-0.191,0.119-0.284c0.104-0.014,0.207-0.042,0.309-0.106
		c0.193-0.122,0.344-0.271,0.469-0.434c0.283-0.012,0.562-0.126,0.797-0.419c0.65-0.815,0.963-1.783,1.049-2.829
		C104.836,197.388,104.814,197.327,104.795,197.268z"/>
	<path fill="#796948" d="M87.025,159.443c-0.283-0.303-0.703,0.138-0.447,0.447c1.959,2.383,4.23,4.474,6.074,6.955
		c2.006,2.7,3.031,6.044,4.643,8.975c1.346,2.444,2.873,5.193,4.594,7.832c-0.607-1.868-1.467-3.716-2.049-5.425
		c0.023-0.071,0.037-0.146,0.033-0.228c-0.037-0.661-0.145-2.564-0.299-5.054c-1.436-2.065-2.773-4.187-4.465-6.06
		C92.67,164.186,89.529,162.117,87.025,159.443z"/>
	<path fill="#796948" d="M82.045,151.985c4.193,2.459,8.91,3.426,12.67,6.707c1.703,1.487,2.502,4.898,4.338,6.366
		c-0.164-2.289-0.34-4.569-0.518-6.572c-0.846-0.669-1.682-1.25-2.352-1.697c-3.869-2.584-9.529-4.051-14.002-5.125
		C81.988,151.618,81.871,151.883,82.045,151.985z"/>
	<path fill="#796948" d="M79.699,172.111c0.111-0.061,0.063-0.245-0.064-0.24c-1.791,0.07-3.388,0.574-5.186,0.699
		c-1.869,0.13-4.689-1.188-6.588-1.588c-3.629-0.763-7.391-2.242-11.061-2.53c-0.535-0.042-0.896,0.641-0.617,1.075
		c2.092,3.249,6.339,3.569,9.91,3.921C71.08,173.938,75.158,174.607,79.699,172.111z"/>
	<path fill="#B09D76" d="M123.621,152.276c-0.4-0.832-1.189-1.222-2.008-1.528c0.275-0.584,0.479-1.185,0.568-1.719
		c0.174-1.033-0.34-1.927-1.133-2.282c0.281-0.685,0.473-1.398,0.537-2.006c0.082-0.753-0.086-1.433-0.457-2.089
		c-0.436-0.768-0.982-0.982-1.67-1.067c0.23-2.44-0.697-5.154-1.863-7.463c-0.213-0.894-0.4-1.698-0.553-2.373
		c-1.287-5.728-3.582-11.149-4.908-16.855c-0.773-3.32-1.578-6.8-4.496-8.829c-0.232-0.162-0.482-0.065-0.629,0.122
		c-2.037-0.177-3.189,1.953-3.785,4.101c-3.082,3.536-4.492,10.676-3.676,14.892c0.779,4.013,3.211,7.12,5.027,10.703
		c1.314,2.587,2.322,5.552,3.934,8.014c0.354,1.106,0.699,2.189,1.029,3.219c0.01,1.055,0.07,2.124,0.133,3.146
		c0.057,0.891,0.514,1.718,1.023,2.483c-0.076-0.002-0.154-0.003-0.229-0.005c-0.65-0.016-1.312,0.587-1.262,1.262
		c0.035,0.478,0.15,0.912,0.32,1.319c-0.576,0.063-1.131,0.591-1.076,1.181c0.059,0.641,0.029,1.331,0.037,2.014
		c-1.066,0.994-2.143,2.107-3.197,3.291c1.807,1.419,3.312,3.321,4.861,4.958c0.656,0.692,1.338,1.4,2.018,2.123
		c2.396-2.035,4.475-3.834,5.467-4.802c0.859-0.838,3.488-4.722,4.148-6.117c0.826-0.521,1.549-1.193,2.066-2.122
		C124.502,154.674,124.166,153.403,123.621,152.276z"/>
	<path fill="#FEC67A" d="M121.938,157.529c0.01-6.17-3.639-20.202-4.895-25.78c-1.287-5.728-3.582-11.149-4.908-16.855
		c-0.773-3.32-1.578-6.8-4.496-8.829c-0.232-0.162-0.482-0.065-0.629,0.122c-3.135-0.272-4.186,4.919-4.312,7.233
		c-0.145,2.631-0.684,6.813-0.592,7.824c0.471,5.191,8.584,29.025,10.111,34.423c-4.967,2.711-11.09,11.276-14.504,15.412
		c-4.107,4.976-9.859,9.46-13.309,14.979c-0.486,0.192-0.932,0.537-1.299,1.027c-0.359,0.48-1.271,4.446-0.935,5.542
		c0.062,0.201,7.243,4.265,8.028,4.101c0.273-0.058,0.518-0.298,0.623-0.572c0.662-0.483,0.574-2.487,0.59-2.941
		c0.053-1.523-0.033-3.113-0.459-4.452c1.098-3.429,7.002-7.703,9.49-9.937c3.086-2.771,14.402-12.022,17.191-14.743
		C118.619,163.122,121.936,158.151,121.938,157.529z"/>
	<path fill="#B09D76" d="M123.621,152.276c-0.4-0.832-1.189-1.222-2.008-1.528c0.275-0.584,0.479-1.185,0.568-1.719
		c0.174-1.033-0.34-1.927-1.133-2.282c0.281-0.685,0.473-1.398,0.537-2.006c0.082-0.753-0.086-1.433-0.457-2.089
		c-0.436-0.768-0.982-0.982-1.67-1.067c0.23-2.44-0.697-5.154-1.863-7.463c-0.213-0.894-0.4-1.698-0.553-2.373
		c-1.287-5.728-3.582-11.149-4.908-16.855c-0.773-3.32-1.578-6.8-4.496-8.829c-0.232-0.162-0.482-0.065-0.629,0.122
		c-2.037-0.177-3.189,1.953-3.785,4.101c-3.082,3.536-4.492,10.676-3.676,14.892c0.779,4.013,3.211,7.12,5.027,10.703
		c1.314,2.587,2.322,5.552,3.934,8.014c0.354,1.106,0.699,2.189,1.029,3.219c0.01,1.055,0.07,2.124,0.133,3.146
		c0.057,0.891,0.514,1.718,1.023,2.483c-0.076-0.002-0.154-0.003-0.229-0.005c-0.65-0.016-1.312,0.587-1.262,1.262
		c0.035,0.478,0.15,0.912,0.32,1.319c-0.576,0.063-1.131,0.591-1.076,1.181c0.059,0.641,0.029,1.331,0.037,2.014
		c-1.066,0.994-2.143,2.107-3.197,3.291c1.807,1.419,3.312,3.321,4.861,4.958c0.656,0.692,1.338,1.4,2.018,2.123
		c2.396-2.035,4.475-3.834,5.467-4.802c0.859-0.838,3.488-4.722,4.148-6.117c0.826-0.521,1.549-1.193,2.066-2.122
		C124.502,154.674,124.166,153.403,123.621,152.276z"/>
	<g>
		<path fill="#796948" d="M119.188,148.605c0.896-0.364,1.803-0.729,2.684-1.14c-0.205-0.315-0.486-0.567-0.822-0.718
			c0.186-0.452,0.312-0.905,0.41-1.344c-0.871,0.852-1.84,1.599-2.693,2.477C118.486,148.169,118.764,148.778,119.188,148.605z"/>
		<path fill="#796948" d="M109.479,146.927c0.387,0.142,0.77,0.282,1.127,0.424c0.096,0.038,0.186-0.112,0.104-0.176
			c-0.48-0.374-0.992-0.772-1.523-1.164C109.283,146.319,109.383,146.627,109.479,146.927z"/>
		<path fill="#796948" d="M123.152,156.808c-0.5,0.106-1.029,0.154-1.633,0.06c-1.383-0.216-3.105-0.418-4.469-0.047
			c-0.189,0.051-0.305,0.294-0.189,0.465c0.922,1.367,2.443,1.882,3.949,2.376c0.428-0.682,0.783-1.292,0.973-1.694
			C122.289,157.648,122.748,157.263,123.152,156.808z"/>
		<path fill="#796948" d="M117.551,143.971c0.852-0.571,1.891-1.274,2.861-2.09c-0.283-0.17-0.6-0.252-0.953-0.295
			c0.078-0.824,0.016-1.681-0.137-2.541c-0.049,0.138-0.1,0.276-0.156,0.408c-0.6,1.407-1.199,2.804-2.064,4.07
			C116.916,143.792,117.281,144.151,117.551,143.971z"/>
		<path fill="#796948" d="M115.531,161.584c0.158,0.062,0.232-0.151,0.148-0.255c-1.531-1.895-3.963-2.524-6.172-3.317
			c-0.328-0.118-0.67-0.267-1.021-0.433c0,0.309-0.004,0.622,0,0.934c-0.215,0.201-0.432,0.426-0.648,0.636
			c1.047,0.131,2.098,0.3,3.086,0.52C112.596,160.041,113.969,160.968,115.531,161.584z"/>
		<path fill="#796948" d="M114.08,150.491c1.666,1.929,4.133,1.783,6.477,1.474c0.863-0.114,1.725-0.232,2.59-0.329
			c-0.42-0.413-0.967-0.676-1.533-0.888c0.199-0.423,0.342-0.847,0.449-1.255c-0.594,0.265-1.18,0.554-1.734,0.779
			c-2.023,0.819-4.049,0.272-6.088-0.055C114.078,150.191,113.969,150.361,114.08,150.491z"/>
		<path fill="#796948" d="M111.963,156.857c0.162,0.033,0.26-0.116,0.197-0.258c-0.498-1.163-1.721-1.953-2.949-2.57
			c0.037,0.466,0.148,0.892,0.314,1.29c-0.217,0.024-0.432,0.115-0.613,0.25C109.916,156.11,110.916,156.645,111.963,156.857z"/>
		<path fill="#796948" d="M110.695,152.743c-0.076-0.002-0.154-0.003-0.229-0.005c-0.047-0.001-0.094,0.008-0.141,0.013
			c0.516,0.251,1.029,0.513,1.568,0.74c0.195,0.082,0.402-0.03,0.549-0.145c0.055-0.042,0.107-0.084,0.16-0.126
			c0.059-0.045,0.082-0.15,0.059-0.216c-0.295-0.835-1.664-1.408-2.783-1.823C110.07,151.727,110.365,152.25,110.695,152.743z"/>
	</g>
	<g>
		<path fill="#796948" d="M69.049,180.54c-3.32-1.095-6.367-2.432-9.457-4.06c-1.771-0.933-3.4-1.929-5.182-2.555
			c-0.371,1.391-0.711,2.706-0.981,3.966c2.583,0.231,5.739,1.669,7.438,2.15c2.682,0.76,5.397,1.608,8.183,1.086
			C69.365,181.068,69.313,180.627,69.049,180.54z"/>
		<path fill="#796948" d="M56.611,137.388c0.104,0.626,0.202,1.243,0.293,1.851c0.049,0.326,0.096,0.647,0.141,0.967
			c0.05,0.362,0.1,0.723,0.145,1.079c0.029,0.231,0.066,0.472,0.094,0.699c2.216-2.407,4.891-3.756,8.48-2.513
			c0.133,0.045,0.24-0.143,0.137-0.235c-3.141-2.789-6.266-3.351-9.306-1.948C56.601,137.321,56.605,137.353,56.611,137.388z"/>
		<path fill="#796948" d="M54.186,182.752c2.639,0.719,5.192,1.298,7.949,1.088c0.379-0.029,0.467-0.548,0.09-0.668
			c-1.404-0.445-2.842-0.738-4.242-1.199c-1.659-0.548-3.159-1.492-4.803-2.094c-0.037-0.014-0.076-0.026-0.113-0.039
			c-0.139,0.905-0.225,1.789-0.248,2.662C53.282,182.559,53.742,182.631,54.186,182.752z"/>
	</g>
	<path fill="#796948" d="M103.277,108.393c-4.811,4.617-7.182,15.026-3.975,21.044c0.465,0.872,1.865,0.271,1.584-0.668
		c-2.242-7.497-0.725-13.232,2.812-20.05C103.84,108.449,103.502,108.176,103.277,108.393z"/>
	<path fill="#FEC67A" d="M60.756,184.561c-0.912,0.677-5.24,1.025-6.229,0.803c-0.666-0.149-1.42-0.23-2.174-0.247
		c-0.708-0.365-1.471-0.613-2.258-0.68c-1.164-0.098-2.417,0.226-3.209,1.112c-0.37,0.414-0.387,1.107-0.145,1.637
		c-0.148,3.507,4.465,7.612,6.143,9.899c0.633,0.862,3.871-3.271,4.607-4.748c0.334-0.67,0.004-1.289-0.533-1.618
		c-0.015-0.021-0.023-0.041-0.04-0.061c-0.76-0.912-1.138-2.032-1.763-3.033c1.979,0.383,6.486-0.706,6.77-2.164
		C62.044,184.854,61.373,184.103,60.756,184.561z"/>
	<path fill="#AE2E43" d="M101.361,133.842c-0.273-7.102-4.674-14.245-2.668-21.311c1.658-5.842,8.502-16.076-6.344-14.888
		c-0.588-0.122-1.281-0.015-1.752,0.409c-0.357,0.238-0.713,0.476-1.072,0.713c-0.811,0.429-1.061,1.439-0.406,1.981
		c4.094,3.397,1.666,7.511,0.225,11.267c-1.697,4.424-1.123,8.948-0.334,13.427c0.936,5.318,2.326,10.565,2.406,15.928
		c0.07,4.606-0.467,9.456,1.273,13.969c0.713,1.848,5.197,1.064,4.521-0.782c-1.979-5.416,0.447-5.223,1.426,0.564
		c0.207,1.221,3.205,1.273,3.102,0C101.15,148.016,101.637,140.947,101.361,133.842z"/>
	<path fill="#AE2E43" d="M73.07,103.744c1.055,2.183,4.191,2.806,6.297,3.118c6.398,0.948,13.471-0.788,17.641-5.963
		c0.475-0.589,0.432-7.565-3.301-6.974c-3.236,0.513-2.156,12.742-15.238,3.059c-0.901-0.667-2.251,0.048-2.501,1.017
		C75.151,101.156,71.451,100.393,73.07,103.744z"/>
	<path fill="#EF4764" d="M96.385,98.875c-1.496-0.792-3.84-2.278-4.748-1.831c-10.012,4.939-12.195-4.389-15.012-0.815
		c-0.033,0.041-0.057,0.079-0.086,0.118c-1.295,0.921-2.258,1.999-3.648,2.863c-0.67,0.416-0.476,1.117,0,1.55
		c4.17,3.806,11.242,5.083,17.639,4.385c2.107-0.229,5.242-0.688,6.299-2.293C98.447,100.389,99.926,100.75,96.385,98.875z"/>
	<path fill="#EF4764" d="M74.979,94.56c-2.951,1.027-9.17,2.358-10.451,5.447c-4.837,11.667-17.039,22.926-13.089,34.146
		c1.739,4.938,0.534,15.497,0.049,18.705c0.022,0.673,0.057,1.346,0.126,2.017c0.182,1.771,2.967,1.795,2.793,0
		c-0.121-1.134-0.18-2.276-0.203-3.422c0.14-0.016,0.279-0.041,0.412-0.085c0.041,1.509,0.158,3.007,0.455,4.481
		c0.171,0.845,1.412,0.768,1.627,0c2.859-10.186,0.817-9.089,0.147-19.134c-0.409-6.125-2.562-10.528,2.846-17.927
		c2.676-3.662,7.903-13.26,9.778-17.468c0.168-0.377-0.203-0.702-0.535-0.512c0.377-0.484,0.683-1.007,0.831-1.589
		c2.002-1.27,3.944-2.458,5.665-3.588C75.962,95.282,75.634,94.332,74.979,94.56z"/>
	<g>
		<path fill="#352513" d="M75.573,64.343c-0.234-3.977,0.154-8.762-0.987-12.726c0.131-0.433,0.275-0.857,0.398-1.295
			c0.188-0.672-0.57-1.59-1.236-0.959c-0.02,0.02-0.037,0.041-0.059,0.06c-0.468-0.489-1.324-0.418-1.639,0.274
			c-0.385,0.849-0.626,1.731-0.773,2.632c-1.139,1.71-2.031,3.615-2.756,5.605c-0.054,0.021-0.103,0.05-0.15,0.085
			c0.551-2.484,1.197-4.945,1.973-7.363c1.531-4.786,4.366-8.98,5.904-13.722c0.148-0.456,0.01-0.869-0.26-1.135
			c1.205-2.124,2.32-4.29,3.195-6.575c0.324-0.846-0.66-1.686-1.414-1.099c-6.756,5.27-11.142,15.354-13.25,23.432
			c-1.919,7.351-3.621,17.046-2.207,24.946c-0.691,1.742-1.145,3.671-1.796,5.331c-1.037,2.646-1.728,4.877-1.906,7.696
			c-0.021,0.314,0.454,0.384,0.487,0.066c0.271-2.568,1.68-4.991,3.043-7.221c-0.094,4.149-0.059,8.279,0.146,12.304
			c0.021,0.414,0.711,0.522,0.828,0.111c0.891-3.127,1.451-6.364,1.862-9.642c0.272,1.833,0.71,3.589,1.353,5.197
			c0.121,0.303,0.502,0.397,0.777,0.288c-0.733,3.298-1.545,6.609-1.917,10.12c-0.022,0.214,0.286,0.383,0.417,0.175
			c7.195-11.455,7.295-24.729,4.924-37.579c0.32-0.957,0.657-1.906,0.997-2.854c0.024,0.25,0.047,0.497,0.065,0.743
			c0.429,5.27,0.896,10.546,0.859,15.837c-0.072,10.529-3.661,20.323-6.201,30.378c-0.088,0.348,0.411,0.413,0.561,0.153
			c4.775-8.303,7.341-18.851,8.604-28.285C76.082,74.363,75.865,69.319,75.573,64.343z M67.418,89.205
			c0.053-5.027,0.01-9.864,0.586-14.794c0.105,0.645,0.209,1.283,0.295,1.907C68.938,80.879,68.299,85.052,67.418,89.205z"/>
		<path fill="#FEC67A" d="M92.918,33.626c-8.719-2.136-16.531,1.308-21.863,8.25c-4.538,5.909-5.304,9.451-4.42,20.244
			c-2,9.379,6.104,23.754,13.978,26.183c10.956,3.379,25.798-11.8,28.304-22.596C112,52.423,107.318,37.154,92.918,33.626z"/>
		<path fill="#542635" d="M79.211,52.987c-1.035-1.484-3.881-1.805-5.585-1.916c-2.333-0.152-4.889,1.188-6.735,2.477
			c-0.02,0.013-0.002,0.044,0.02,0.04c2.676-0.524,5.432-2,8.184-0.98c1.465,0.542,2.975,1.623,3.92,1.345
			C79.429,53.83,79.436,53.308,79.211,52.987z"/>
		<path fill="#542635" d="M103.621,53.566c-3-1.235-5.979-2.88-9.229-3.296c-1.629-0.208-3.973,0.673-5.229,1.699
			c-1.479,1.206,0.279,1.369,0.543,1.259c1.578-0.656,2.182-1.436,4.072-1.789c3.197-0.599,6.547,2.125,9.664,2.618
			C103.721,54.101,103.908,53.685,103.621,53.566z"/>
		<ellipse fill="#FFFFFF" cx="94.168" cy="60.304" rx="5.045" ry="1.816"/>
		<path fill="#542635" d="M94.705,57.79c-1.85-0.139-4.467,0.404-5.785,1.855c-0.113,0.123-0.006,0.363,0.172,0.299
			c2.51-0.901,5.178-0.727,7.617-0.526c0.268,0.022,2.637,0.772,2.723,0.542C99.908,58.654,95.287,57.834,94.705,57.79z"/>
		<circle fill="#542635" cx="95.358" cy="60.304" r="1.646"/>
		<ellipse fill="#FFFFFF" cx="73.667" cy="59.246" rx="5.045" ry="1.816"/>
		<path fill="#542635" d="M74.205,56.731c-1.85-0.139-4.467,0.404-5.786,1.855c-0.112,0.123-0.006,0.363,0.173,0.299
			c2.51-0.901,5.178-0.727,7.617-0.526c0.268,0.022,2.637,0.772,2.723,0.542C79.408,57.596,74.787,56.775,74.205,56.731z"/>
		<circle fill="#542635" cx="74.858" cy="59.246" r="1.646"/>
		<path fill="#542635" d="M94.223,74.301c-4.525,1.887-7.025,1.637-12.15,1.074c-2.193-0.241-5.568-0.188-7.875-1.438
			c-1.255-0.68-0.861,0.404,0.187,1.448c2.813,2.802,3.501,4.052,8.813,4.552c3.709,0.349,7.809-3.903,11.182-5.071
			C94.734,74.743,94.574,74.155,94.223,74.301z"/>
		<path fill="#FFFFFF" d="M88.998,76.702c0.213-0.204,0.441-0.389,0.67-0.575c-0.748,0.103-1.502,0.157-2.297,0.157
			c-1.604,0-3.342-0.191-5.354-0.412c-0.468-0.051-0.989-0.089-1.543-0.129c-1.537-0.111-3.352-0.25-4.967-0.741
			c0.211,0.167,0.416,0.342,0.611,0.534c0.249,0.243,0.054,0.604-0.221,0.671c1.953,1.975,3.014,2.825,7.346,3.233
			c0.129,0.012,0.26,0.018,0.391,0.018c1.748,0,3.633-1.043,5.49-2.207C88.926,77.156,88.809,76.883,88.998,76.702z"/>
		<path fill="#F47E4F" d="M85.293,55.289c-0.332-2.576-1.746-3.162-2.034-0.243c-0.091,0.927-0.819,6.761-4.224,13.43
			c-0.557,1.092,1.424,2.317,3.836,2.668c2.029,0.295,4.531-0.076,4.439-1.175C86.891,65.011,85.928,60.211,85.293,55.289z"/>
		<path fill="#FEC67A" d="M85.293,55.289c-0.332-2.576-1.746-3.162-2.034-0.243c-0.091,0.927-0.819,6.761-4.224,13.43
			c-0.557,1.092,0.62-0.255,3.033,0.095c2.027,0.295,5.334,2.497,5.242,1.397C86.891,65.011,85.928,60.211,85.293,55.289z"/>
		<circle fill="#F9A165" cx="97.004" cy="69.142" r="3.525"/>
		<circle fill="#F9A165" cx="70.923" cy="67.213" r="3.119"/>
		<g>
			<path fill="#352513" d="M75.573,64.343c-0.234-3.977,0.154-8.762-0.987-12.726c0.131-0.433,0.275-0.857,0.398-1.295
				c0.188-0.672-0.57-1.59-1.236-0.959c-0.02,0.02-0.037,0.041-0.059,0.06c-0.468-0.489-1.324-0.418-1.639,0.274
				c-0.385,0.849-0.626,1.731-0.773,2.632c-1.139,1.71-2.031,3.615-2.756,5.605c-0.054,0.021-0.103,0.05-0.15,0.085
				c0.551-2.484,1.197-4.945,1.973-7.363c1.531-4.786,4.366-8.98,5.904-13.722c0.148-0.456,0.01-0.869-0.26-1.135
				c1.205-2.124,2.32-4.29,3.195-6.575c0.324-0.846-0.66-1.686-1.414-1.099c-6.756,5.27-11.142,15.354-13.25,23.432
				c-1.919,7.351-3.621,17.046-2.207,24.946c-0.691,1.742-1.145,3.671-1.796,5.331c-1.037,2.646-1.728,4.877-1.906,7.696
				c-0.021,0.314,0.454,0.384,0.487,0.066c0.271-2.568,1.68-4.991,3.043-7.221c-0.094,4.149-0.059,8.279,0.146,12.304
				c0.021,0.414,0.711,0.522,0.828,0.111c0.891-3.127,1.451-6.364,1.862-9.642c0.272,1.833,0.71,3.589,1.353,5.197
				c0.121,0.303,0.502,0.397,0.777,0.288c-0.733,3.298-1.545,6.609-1.917,10.12c-0.022,0.214,0.286,0.383,0.417,0.175
				c7.195-11.455,7.295-24.729,4.924-37.579c0.32-0.957,0.657-1.906,0.997-2.854c0.024,0.25,0.047,0.497,0.065,0.743
				c0.429,5.27,0.896,10.546,0.859,15.837c-0.072,10.529-3.661,20.323-6.201,30.378c-0.088,0.348,0.411,0.413,0.561,0.153
				c4.775-8.303,7.341-18.851,8.604-28.285C76.082,74.363,75.865,69.319,75.573,64.343z M67.418,89.205
				c0.053-5.027,0.01-9.864,0.586-14.794c0.105,0.645,0.209,1.283,0.295,1.907C68.938,80.879,68.299,85.052,67.418,89.205z"/>
			<path fill="#FEC67A" d="M92.918,33.626c-8.719-2.136-16.531,1.308-21.863,8.25c-4.538,5.909-5.304,9.451-4.42,20.244
				c-2,9.379,6.104,23.754,13.978,26.183c10.956,3.379,25.798-11.8,28.304-22.596C112,52.423,107.318,37.154,92.918,33.626z"/>
			<path fill="#542635" d="M79.211,52.987c-1.035-1.484-3.881-1.805-5.585-1.916c-2.333-0.152-4.889,1.188-6.735,2.477
				c-0.02,0.013-0.002,0.044,0.02,0.04c2.676-0.524,5.432-2,8.184-0.98c1.465,0.542,2.975,1.623,3.92,1.345
				C79.429,53.83,79.436,53.308,79.211,52.987z"/>
			<path fill="#542635" d="M103.621,53.566c-3-1.235-5.979-2.88-9.229-3.296c-1.629-0.208-3.973,0.673-5.229,1.699
				c-1.479,1.206,0.279,1.369,0.543,1.259c1.578-0.656,2.182-1.436,4.072-1.789c3.197-0.599,6.547,2.125,9.664,2.618
				C103.721,54.101,103.908,53.685,103.621,53.566z"/>
			<ellipse fill="#FFFFFF" cx="94.168" cy="60.304" rx="5.045" ry="1.816"/>
			<path fill="#542635" d="M94.705,57.79c-1.85-0.139-4.467,0.404-5.785,1.855c-0.113,0.123-0.006,0.363,0.172,0.299
				c2.51-0.901,5.178-0.727,7.617-0.526c0.268,0.022,2.637,0.772,2.723,0.542C99.908,58.654,95.287,57.834,94.705,57.79z"/>
			<circle fill="#542635" cx="95.358" cy="60.304" r="1.646"/>
			<ellipse fill="#FFFFFF" cx="73.667" cy="59.246" rx="5.045" ry="1.816"/>
			<path fill="#542635" d="M74.205,56.731c-1.85-0.139-4.467,0.404-5.786,1.855c-0.112,0.123-0.006,0.363,0.173,0.299
				c2.51-0.901,5.178-0.727,7.617-0.526c0.268,0.022,2.637,0.772,2.723,0.542C79.408,57.596,74.787,56.775,74.205,56.731z"/>
			<circle fill="#542635" cx="74.858" cy="59.246" r="1.646"/>
			<path fill="#542635" d="M94.223,74.301c-4.525,1.887-7.025,1.637-12.15,1.074c-2.193-0.241-5.568-0.188-7.875-1.438
				c-1.255-0.68-0.861,0.404,0.187,1.448c2.813,2.802,3.501,4.052,8.813,4.552c3.709,0.349,7.809-3.903,11.182-5.071
				C94.734,74.743,94.574,74.155,94.223,74.301z"/>
			<path fill="#FFFFFF" d="M88.998,76.702c0.213-0.204,0.441-0.389,0.67-0.575c-0.748,0.103-1.502,0.157-2.297,0.157
				c-1.604,0-3.342-0.191-5.354-0.412c-0.468-0.051-0.989-0.089-1.543-0.129c-1.537-0.111-3.352-0.25-4.967-0.741
				c0.211,0.167,0.416,0.342,0.611,0.534c0.249,0.243,0.054,0.604-0.221,0.671c1.953,1.975,3.014,2.825,7.346,3.233
				c0.129,0.012,0.26,0.018,0.391,0.018c1.748,0,3.633-1.043,5.49-2.207C88.926,77.156,88.809,76.883,88.998,76.702z"/>
			<path fill="#F47E4F" d="M85.293,55.289c-0.332-2.576-1.746-3.162-2.034-0.243c-0.091,0.927-0.819,6.761-4.224,13.43
				c-0.557,1.092,1.424,2.317,3.836,2.668c2.029,0.295,4.531-0.076,4.439-1.175C86.891,65.011,85.928,60.211,85.293,55.289z"/>
			<path fill="#FEC67A" d="M85.293,55.289c-0.332-2.576-1.746-3.162-2.034-0.243c-0.091,0.927-0.819,6.761-4.224,13.43
				c-0.557,1.092,0.62-0.255,3.033,0.095c2.027,0.295,5.334,2.497,5.242,1.397C86.891,65.011,85.928,60.211,85.293,55.289z"/>
			<circle fill="#F9A165" cx="97.004" cy="69.142" r="3.525"/>
			<circle fill="#F9A165" cx="70.923" cy="67.213" r="3.119"/>
			<path fill="#9D673F" d="M115.389,56.577c-0.09-2.548-0.266-5.104-0.516-7.726c-0.348-3.629-0.506-8.337-2.662-11.512
				c-0.102-0.468-0.193-0.941-0.318-1.398c-1.238-4.547-6.068-8.068-10.545-5.853c-5.771-5.387-14.041-7.575-21.891-5.505
				c-5.697,1.501-9.963,5.804-12.461,11.019c-1.572,2.123-2.773,4.596-3.766,6.928c-2.41,5.663-4.558,11.971-4.771,18.137
				c-0.008,0.2,0.294,0.237,0.345,0.047c0.919-3.437,2.446-6.919,4.022-10.33c-0.367,1.478-0.732,2.962-1.107,4.422
				c-0.121,0.468-0.24,0.938-0.359,1.409c0.055-0.094,0.104-0.189,0.158-0.283c-0.129,0.375-0.248,0.75-0.363,1.123
				c-0.57,2.327-1.084,4.69-1.445,7.067c-0.28,4.24,0.548,8.604,1.529,12.654c0.125,0.515,0.909,0.296,0.791-0.218
				c-1.189-5.203-0.978-9.979,0.319-15.123c0.837-3.321,2.956-6.325,4.306-9.444c1.463-1.758,3.049-3.412,4.727-4.978
				c0.624-0.367,1.252-0.726,1.907-1.038c3.026-1.446,6.396-2.232,9.646-2.994c5.068-1.188,10.092-1.999,14.871-4.094
				c0.008,0.007,0.012,0.016,0.021,0.022c0.344,0.239,0.668,0.485,0.99,0.732c0.811,1.957,1.455,3.942,1.99,6.046
				c1.785,7.011,1.975,14.313,2.617,21.478c0.023,0.27,0.402,0.273,0.422,0c0.463-6.599-0.039-13.72-0.973-20.271
				c-0.191-1.336-0.416-2.737-0.701-4.146c1.217,1.345,5.281,20.485,5.672,24.949c0.543,6.221-0.268,11.888-0.932,18.052
				c-0.029,0.263,0.359,0.283,0.438,0.059c1.619-4.709,3.146-9.339,3.701-14.309c0.18-1.61,0.422-3.434,0.621-5.321
				c-0.029,1.455-0.141,2.92-0.279,4.428c-0.52,5.735-1.387,11.476-0.508,17.211c0.043,0.273,0.424,0.218,0.498,0
				C114.689,78.086,118.199,66.834,115.389,56.577z"/>
			<g>
				<path fill="#352513" d="M96.363,35.585c-0.561-0.116-1.078-0.071-1.645-0.025c-0.025,0.002-0.033,0.039-0.006,0.046
					c0.51,0.143,1.006,0.317,1.52,0.455c0.191,0.051,0.373,0.133,0.555,0.215c-0.119-0.013-0.244,0.006-0.395,0.098
					c-0.219,0.134-0.219,0.451,0,0.585c0.342,0.208,0.551,0.078,0.871-0.07c0.148-0.068,0.158-0.293,0.047-0.401
					c0.105,0.035,0.213,0.065,0.324,0.079c0.229,0.029,0.273-0.264,0.166-0.4C97.49,35.776,96.828,35.681,96.363,35.585z"/>
				<path fill="#352513" d="M98.568,32.638c-0.039-0.013-0.076-0.025-0.113-0.038c-0.666-0.227-0.666,1.027,0,0.8
					c0.037-0.013,0.074-0.025,0.113-0.038C98.926,33.24,98.926,32.76,98.568,32.638z"/>
				<path fill="#352513" d="M105.131,38.072c-0.115-0.164-0.422-0.067-0.344,0.145c1.617,4.365,3.654,8.408,4.732,12.986
					c1.184,5.033,1.883,10.217,2.703,15.319c0.014,0.091,0.168,0.07,0.16-0.022C111.639,57.217,110.584,45.932,105.131,38.072z"/>
				<path fill="#352513" d="M98.73,30.315c-0.334-0.263-0.68-0.365-1.096-0.417c-0.266-0.033-0.371,0.391-0.137,0.502
					c0.281,0.134,0.525,0.324,0.781,0.499c0.15,0.101,0.283,0.229,0.416,0.35c0.139,0.125,0.35,0.161,0.518,0.237
					c0.164,0.074,0.314-0.075,0.24-0.241C99.26,30.819,99.102,30.608,98.73,30.315z"/>
				<path fill="#352513" d="M98.031,34.274c-0.535-0.136-1.178-0.287-1.652,0.074c-0.111,0.085-0.111,0.219,0,0.304
					c0.475,0.361,1.117,0.21,1.652,0.074C98.254,34.669,98.254,34.331,98.031,34.274z"/>
				<path fill="#352513" d="M93.537,35.085C81.74,33.28,73.035,39.941,65.051,47.75c-0.093,0.092,0.031,0.26,0.143,0.184
					c4.055-2.77,7.528-6.254,11.682-8.908c5.178-3.308,10.73-3.131,16.594-3.436C93.744,35.577,93.838,35.131,93.537,35.085z"/>
				<path fill="#352513" d="M72.4,32.1c2.978-3.036,6.859-3.184,10.777-3.774c0.162-0.024,0.152-0.285,0-0.316
					c-3.679-0.771-8.619,1.009-10.977,3.892C72.09,32.038,72.271,32.231,72.4,32.1z"/>
				<path fill="#352513" d="M110.514,39.404c0.084,0.133,0.301,0.049,0.256-0.108c-0.686-2.468-3.27-4.753-5.582-5.654
					c-0.211-0.083-0.354,0.263-0.154,0.364C107.322,35.161,109.16,37.282,110.514,39.404z"/>
				<path fill="#352513" d="M93.162,30.417c1.352,0.541,2.445,1.242,3.699,1.933c0.189,0.104,0.389-0.102,0.289-0.289
					c-1.145-2.139-4.824-2.531-6.838-3.414c-0.021-0.01-0.049,0.017-0.027,0.037C91.135,29.462,92.094,29.989,93.162,30.417z"/>
			</g>
		</g>
		<path fill="#9D673F" d="M115.389,56.577c-0.09-2.548-0.266-5.104-0.516-7.726c-0.348-3.629-0.506-8.337-2.662-11.512
			c-0.102-0.468-0.193-0.941-0.318-1.398c-1.238-4.547-6.068-8.068-10.545-5.853c-5.771-5.387-14.041-7.575-21.891-5.505
			c-5.697,1.501-9.963,5.804-12.461,11.019c-1.572,2.123-2.773,4.596-3.766,6.928c-2.41,5.663-4.558,11.971-4.771,18.137
			c-0.008,0.2,0.294,0.237,0.345,0.047c0.919-3.437,2.446-6.919,4.022-10.33c-0.367,1.478-0.732,2.962-1.107,4.422
			c-0.121,0.468-0.24,0.938-0.359,1.409c0.055-0.094,0.104-0.189,0.158-0.283c-0.129,0.375-0.248,0.75-0.363,1.123
			c-0.57,2.327-1.084,4.69-1.445,7.067c-0.28,4.24,0.548,8.604,1.529,12.654c0.125,0.515,0.909,0.296,0.791-0.218
			c-1.189-5.203-0.978-9.979,0.319-15.123c0.837-3.321,2.956-6.325,4.306-9.444c1.463-1.758,3.049-3.412,4.727-4.978
			c0.624-0.367,1.252-0.726,1.907-1.038c3.026-1.446,6.396-2.232,9.646-2.994c5.068-1.188,10.092-1.999,14.871-4.094
			c0.008,0.007,0.012,0.016,0.021,0.022c0.344,0.239,0.668,0.485,0.99,0.732c0.811,1.957,1.455,3.942,1.99,6.046
			c1.785,7.011,1.975,14.313,2.617,21.478c0.023,0.27,0.402,0.273,0.422,0c0.463-6.599-0.039-13.72-0.973-20.271
			c-0.191-1.336-0.416-2.737-0.701-4.146c1.217,1.345,5.281,20.485,5.672,24.949c0.543,6.221-0.268,11.888-0.932,18.052
			c-0.029,0.263,0.359,0.283,0.438,0.059c1.619-4.709,3.146-9.339,3.701-14.309c0.18-1.61,0.422-3.434,0.621-5.321
			c-0.029,1.455-0.141,2.92-0.279,4.428c-0.52,5.735-1.387,11.476-0.508,17.211c0.043,0.273,0.424,0.218,0.498,0
			C114.689,78.086,118.199,66.834,115.389,56.577z"/>
		<g>
			<path fill="#352513" d="M96.363,35.585c-0.561-0.116-1.078-0.071-1.645-0.025c-0.025,0.002-0.033,0.039-0.006,0.046
				c0.51,0.143,1.006,0.317,1.52,0.455c0.191,0.051,0.373,0.133,0.555,0.215c-0.119-0.013-0.244,0.006-0.395,0.098
				c-0.219,0.134-0.219,0.451,0,0.585c0.342,0.208,0.551,0.078,0.871-0.07c0.148-0.068,0.158-0.293,0.047-0.401
				c0.105,0.035,0.213,0.065,0.324,0.079c0.229,0.029,0.273-0.264,0.166-0.4C97.49,35.776,96.828,35.681,96.363,35.585z"/>
			<path fill="#352513" d="M98.568,32.638c-0.039-0.013-0.076-0.025-0.113-0.038c-0.666-0.227-0.666,1.027,0,0.8
				c0.037-0.013,0.074-0.025,0.113-0.038C98.926,33.24,98.926,32.76,98.568,32.638z"/>
			<path fill="#352513" d="M105.131,38.072c-0.115-0.164-0.422-0.067-0.344,0.145c1.617,4.365,3.654,8.408,4.732,12.986
				c1.184,5.033,1.883,10.217,2.703,15.319c0.014,0.091,0.168,0.07,0.16-0.022C111.639,57.217,110.584,45.932,105.131,38.072z"/>
			<path fill="#352513" d="M98.73,30.315c-0.334-0.263-0.68-0.365-1.096-0.417c-0.266-0.033-0.371,0.391-0.137,0.502
				c0.281,0.134,0.525,0.324,0.781,0.499c0.15,0.101,0.283,0.229,0.416,0.35c0.139,0.125,0.35,0.161,0.518,0.237
				c0.164,0.074,0.314-0.075,0.24-0.241C99.26,30.819,99.102,30.608,98.73,30.315z"/>
			<path fill="#352513" d="M98.031,34.274c-0.535-0.136-1.178-0.287-1.652,0.074c-0.111,0.085-0.111,0.219,0,0.304
				c0.475,0.361,1.117,0.21,1.652,0.074C98.254,34.669,98.254,34.331,98.031,34.274z"/>
			<path fill="#352513" d="M93.537,35.085C81.74,33.28,73.035,39.941,65.051,47.75c-0.093,0.092,0.031,0.26,0.143,0.184
				c4.055-2.77,7.528-6.254,11.682-8.908c5.178-3.308,10.73-3.131,16.594-3.436C93.744,35.577,93.838,35.131,93.537,35.085z"/>
			<path fill="#352513" d="M72.4,32.1c2.978-3.036,6.859-3.184,10.777-3.774c0.162-0.024,0.152-0.285,0-0.316
				c-3.679-0.771-8.619,1.009-10.977,3.892C72.09,32.038,72.271,32.231,72.4,32.1z"/>
			<path fill="#352513" d="M110.514,39.404c0.084,0.133,0.301,0.049,0.256-0.108c-0.686-2.468-3.27-4.753-5.582-5.654
				c-0.211-0.083-0.354,0.263-0.154,0.364C107.322,35.161,109.16,37.282,110.514,39.404z"/>
			<path fill="#352513" d="M93.162,30.417c1.352,0.541,2.445,1.242,3.699,1.933c0.189,0.104,0.389-0.102,0.289-0.289
				c-1.145-2.139-4.824-2.531-6.838-3.414c-0.021-0.01-0.049,0.017-0.027,0.037C91.135,29.462,92.094,29.989,93.162,30.417z"/>
		</g>
	</g>
	<path opacity="0.5" fill="#FFFFFF" d="M85.283,136.722c-2.102,0.871-3.658,2.45-5.996,1.161c-1.301-0.719-2.347-2.153-3.289-3.271
		c-1.658-1.967-3.066-4.413-5.291-5.818c-0.434-0.272-0.869-0.505-1.307-0.709c0.013-0.02,0.024-0.043,0.037-0.062
		c0.217-0.34,0.355-0.693,0.49-1.051c0.193,0.114,0.428,0.17,0.71,0.102c1.265-0.307,0.788-2.266-0.476-1.959
		c-0.681,0.166-0.846,0.805-0.665,1.316c-0.327,0.223-0.64,0.463-0.862,0.789c-0.098,0.14-0.203,0.286-0.312,0.435
		c-0.091-0.034-0.181-0.078-0.271-0.109c0.199-0.876,0.407-1.749,0.542-2.637c0.025-0.005,0.045,0.003,0.07-0.003
		c1.561-0.379,0.972-2.799-0.588-2.42c-1.299,0.316-1.098,2.024-0.098,2.377c-0.327,0.675-0.613,1.375-0.826,2.101
		c-0.091-0.226-0.183-0.455-0.234-0.702c-0.184-0.891-0.238-1.801-0.42-2.69c-0.031-0.152-0.191-0.162-0.285-0.083
		c-0.175-0.471-0.612-0.838-1.243-0.685c-1.387,0.337-0.864,2.488,0.523,2.151c0.29-0.071,0.479-0.23,0.61-0.42
		c-0.013,0.602,0,1.208,0.031,1.807c0.014,0.241-0.005,0.481-0.02,0.719c-2.363-0.253-4.529,0.632-5.978,3.115
		c-0.229-0.139-0.505-0.174-0.772-0.05c-0.385-0.553-0.789-1.098-1.229-1.607c-0.439-0.508-1.14,0.202-0.74,0.714
		c0.296,0.379,0.617,0.978,0.982,1.534c-0.344,0.19-0.697,0.367-1.027,0.573c-0.453,0.282-0.292,0.96,0.243,1
		c0.698,0.052,1.276-0.075,1.835-0.334c1.414,5.426,4.346,9.604,9.798,11.418c0.017,0.006,0.034,0.009,0.049,0.015
		c0.013,1.036-1.144,11.066-1.057,12.095c0.009,0.1,0.148,0.109,0.159,0.006c0.096-0.964,1.521-10.917,1.632-11.878
		c1.11,0.314,2.304,0.538,3.511,0.642c0.054,0.879-1.133,10.747-0.965,11.645c0.037,0.206,0.334,0.155,0.35-0.037
		c0.072-0.854,1.428-10.702,1.496-11.557c3.664,0.127,7.324-0.949,9.11-4.238c1.073-0.493,1.974-1.402,2.513-2.799
		C86.207,136.848,85.654,136.568,85.283,136.722z M64.486,131.84c-0.545-0.534-0.605-1.429,0.074-1.9
		c0.223-0.094,0.443-0.188,0.666-0.283c0.702,0,1.344,0.361,1.438,1.122C66.795,131.85,65.475,132.807,64.486,131.84z
		 M77.24,139.897c-0.496,0.312-1.016,0.299-1.516,0.14c-0.166,0.179-0.41,0.286-0.739,0.236c-1.312-0.199-2.867-0.461-3.933-1.33
		c-0.354-0.289-0.68-0.748-0.764-1.216c-0.307-0.499-0.388-1.071,0.096-1.593c0.839-0.906,2.324-0.561,3.184,0.147
		c0.869,0.715,1.535,1.639,2.299,2.456c0.452,0.264,0.909,0.514,1.393,0.752C77.436,139.576,77.373,139.813,77.24,139.897z"/>
	<g>
		<g>
			<path fill="#FFFFFF" d="M109.316,351.135c0.076-1.686,0.014-3.643-0.209-6.012c-0.01-0.084-0.01-0.176-0.016-0.262
				c-0.078,1.08-0.076,2.131,0.016,3.098C109.217,349.115,109.279,350.154,109.316,351.135z"/>
			<path fill="#FFFFFF" d="M121.518,365.52c-0.363,0.299-7.27,4.41-10.402,6.047c-6.652,3.473-13.889,6.402-20.213,6.164
				c-0.475-0.018-4.975-1.611-5.084-3.082c-0.004-0.062-0.02-0.162-0.039-0.287c-0.428,0.941,0.012,2.734,0.039,3.121
				c0.109,1.473,4.609,3.066,5.084,3.084c6.324,0.238,13.561-2.691,20.213-6.164c3.133-1.637,10.039-5.748,10.402-6.047
				c0.779-0.639,0.959-2.367,0.695-4.264C122.09,364.727,121.865,365.234,121.518,365.52z"/>
		</g>
		<path fill="#EF4764" d="M90.902,377.75c6.324,0.238,13.561-2.691,20.213-6.164c3.133-1.637,10.83-6.166,11.195-6.465
			c0.016-3.184-0.242-7.695-2.76-9.836c-3.553-6.354-2.885-14.447-1.875-24.035c0.059-0.553-0.553-2.258-0.98-1.926
			c-2.859,2.217-4.619,2.602-5.812,3.188c-0.668,0.328-7.309-1.381-7.719-0.576c-1.242,2.438,1.484,9.895,1.77,12.926
			c1.07,11.34-1.287,13.355-6.592,18.457c-4.42,4.248-6.762,6.27-11.09,9.018C82.814,375.152,90.271,377.725,90.902,377.75z"/>
		<path fill="#BD223B" d="M92.846,372.016c4.652,1.885,5.719-4.434,9.602-8.166c5.305-5.102,7.729-7.369,6.66-18.707
			c-0.287-3.033-1.035-8.672,0.207-11.111c0.621-1.221,1.436-1.486,2.762-2.027c-1.197-4.193-5.883-3.041-8.389-3.293
			c-0.613-0.061-1.154,0.566-1.145,1.145c0.119,7.143,5.533,9.195,2.781,24.4c-0.719,3.98-4.051,7.258-7.584,10.529
			C94.998,367.324,89.445,370.637,92.846,372.016z"/>
		<path fill="#FFFFFF" d="M118.033,359.242c-0.422-0.191-0.953-0.018-1.422,0.408c-0.617-0.148-1.168-0.047-1.445,0.324
			c-0.457,0.611-0.006,1.719,1.008,2.473c0.426,0.32,0.885,0.523,1.307,0.609c0.328-0.277,0.633-0.676,0.855-1.16
			C118.861,360.748,118.727,359.561,118.033,359.242z"/>
		<g>
			<g>
				<circle fill="#FFFFFF" cx="97.432" cy="372.213" r="0.912"/>
				<circle fill="#57110D" cx="97.432" cy="372.213" r="0.506"/>
				<path fill="#FFFFFF" d="M94.43,366.66c-0.145-0.24-0.457-0.318-0.697-0.176l0,0c-0.238,0.145-0.318,0.455-0.174,0.697
					l3.123,4.906c0.143,0.24,0.455,0.318,0.695,0.176l0,0c0.24-0.145,0.318-0.455,0.174-0.695L94.43,366.66z"/>
				<path fill="#FFFFFF" d="M93.127,367.48c-0.225-0.084-0.488,0.061-0.586,0.324l0,0c-0.098,0.262,0.004,0.541,0.23,0.627
					l4.744,1.594c0.225,0.086,0.486-0.059,0.584-0.322l0,0c0.098-0.262-0.006-0.543-0.232-0.625L93.127,367.48z"/>
			</g>
			<g>
				<circle fill="#FFFFFF" cx="100.248" cy="369.544" r="0.911"/>
				<circle fill="#57110D" cx="100.248" cy="369.544" r="0.507"/>
				<path fill="#FFFFFF" d="M96.775,364.33c-0.145-0.24-0.455-0.32-0.697-0.178l0,0c-0.238,0.145-0.316,0.455-0.174,0.697
					l3.596,4.57c0.141,0.24,0.453,0.318,0.693,0.174l0,0c0.24-0.143,0.318-0.453,0.174-0.693L96.775,364.33z"/>
				<path fill="#FFFFFF" d="M95.734,365.217c-0.191-0.088-0.439,0.047-0.559,0.301l0,0c-0.115,0.254-0.059,0.531,0.131,0.619
					l4.207,1.135c0.188,0.09,0.438-0.045,0.555-0.301l0,0c0.119-0.252,0.061-0.529-0.129-0.615L95.734,365.217z"/>
			</g>
			<g>
				<circle fill="#FFFFFF" cx="102.676" cy="366.535" r="0.912"/>
				<circle fill="#57110D" cx="102.676" cy="366.535" r="0.506"/>
				<path fill="#FFFFFF" d="M99.674,361.779c-0.143-0.24-0.455-0.32-0.697-0.176l0,0c-0.238,0.145-0.316,0.455-0.172,0.695
					l3.123,4.111c0.141,0.24,0.453,0.318,0.693,0.174l0,0c0.24-0.143,0.318-0.453,0.174-0.693L99.674,361.779z"/>
				<path fill="#FFFFFF" d="M102.041,364.367c0.203,0.051,0.424-0.127,0.494-0.398l0,0c0.068-0.268-0.039-0.531-0.24-0.582
					l-3.842-0.4c-0.201-0.053-0.422,0.125-0.492,0.396l0,0c-0.068,0.271,0.039,0.531,0.24,0.584L102.041,364.367z"/>
			</g>
			<g>
				<circle fill="#FFFFFF" cx="105.478" cy="363.555" r="0.912"/>
				<circle fill="#57110D" cx="105.477" cy="363.554" r="0.507"/>
				<path fill="#FFFFFF" d="M102.004,359.027c-0.145-0.24-0.457-0.318-0.697-0.176l0,0c-0.238,0.145-0.318,0.455-0.174,0.697
					l3.596,3.881c0.141,0.24,0.453,0.318,0.693,0.174l0,0c0.24-0.143,0.318-0.453,0.174-0.693L102.004,359.027z"/>
				<path fill="#FFFFFF" d="M104.971,361.342c0.227,0.045,0.453-0.143,0.508-0.416l0,0c0.053-0.275-0.084-0.533-0.311-0.578
					l-4.391,0.25c-0.227-0.047-0.451,0.141-0.506,0.414l0,0c-0.055,0.275,0.084,0.533,0.309,0.576L104.971,361.342z"/>
			</g>
			<g>
				<circle fill="#FFFFFF" cx="108.28" cy="360.62" r="0.911"/>
				<circle fill="#57110D" cx="108.279" cy="360.62" r="0.507"/>
				<path fill="#FFFFFF" d="M104.059,356.143c-0.145-0.24-0.457-0.32-0.697-0.178l0,0c-0.238,0.145-0.318,0.455-0.174,0.697
					l4.344,3.834c0.143,0.24,0.453,0.318,0.693,0.174l0,0c0.24-0.143,0.318-0.453,0.174-0.693L104.059,356.143z"/>
				<path fill="#FFFFFF" d="M106.949,358.447c0.178,0.084,0.42-0.053,0.539-0.307l0,0c0.119-0.252,0.07-0.525-0.109-0.611
					l-4.277-0.059c-0.178-0.084-0.42,0.053-0.539,0.307l0,0c-0.119,0.254-0.068,0.527,0.111,0.609L106.949,358.447z"/>
			</g>
			<g>
				<circle fill="#FFFFFF" cx="110.154" cy="356.277" r="0.912"/>
				<circle fill="#57110D" cx="110.153" cy="356.278" r="0.508"/>
				<path fill="#FFFFFF" d="M105.24,352.045c-0.145-0.24-0.457-0.32-0.697-0.176l0,0c-0.238,0.145-0.318,0.455-0.174,0.695
					l5.035,3.59c0.143,0.24,0.455,0.318,0.695,0.174l0,0c0.24-0.143,0.318-0.453,0.174-0.693L105.24,352.045z"/>
				<path fill="#FFFFFF" d="M108.883,353.84c0.182,0.059,0.402-0.107,0.488-0.373l0,0c0.086-0.266,0.01-0.529-0.172-0.59
					l-4.471,1.145c-0.18-0.061-0.4,0.107-0.486,0.373l0,0c-0.088,0.266-0.01,0.529,0.172,0.59L108.883,353.84z"/>
			</g>
			<g>
				<circle fill="#FFFFFF" cx="110.909" cy="351.27" r="0.912"/>
				<circle fill="#57110D" cx="110.908" cy="351.271" r="0.507"/>
				<path fill="#FFFFFF" d="M105.473,347.83c-0.229-0.164-0.545-0.113-0.709,0.115l0,0c-0.162,0.227-0.109,0.545,0.119,0.707
					l5.381,2.746c0.227,0.162,0.543,0.109,0.707-0.117l0,0c0.162-0.229,0.109-0.545-0.119-0.707L105.473,347.83z"/>
				<path fill="#FFFFFF" d="M109.182,349.602c0.193-0.012,0.338-0.246,0.324-0.525l0,0c-0.014-0.277-0.184-0.498-0.377-0.486
					l-4.07,1.113c-0.191,0.008-0.336,0.244-0.322,0.523l0,0c0.016,0.279,0.184,0.498,0.375,0.486L109.182,349.602z"/>
			</g>
			<g>
				<circle fill="#FFFFFF" cx="111.065" cy="346.459" r="0.912"/>
				<circle fill="#57110D" cx="111.064" cy="346.458" r="0.507"/>
				<path fill="#FFFFFF" d="M105.041,343.83c-0.246-0.129-0.555-0.035-0.686,0.213l0,0c-0.129,0.248-0.033,0.555,0.215,0.686
					l5.918,2.178c0.246,0.131,0.553,0.035,0.682-0.213l0,0c0.131-0.248,0.035-0.553-0.213-0.684L105.041,343.83z"/>
				<path fill="#FFFFFF" d="M108.863,345.256c0.176-0.035,0.277-0.285,0.223-0.561l0,0c-0.055-0.273-0.24-0.469-0.416-0.436
					l-3.779,1.568c-0.176,0.031,0,0-0.221,0.559l0,0c0.053,0.275,0.238,0.467,0.414,0.434L108.863,345.256z"/>
			</g>
			<g>
				<circle fill="#FFFFFF" cx="110.705" cy="341.334" r="0.912"/>
				<circle fill="#57110D" cx="110.705" cy="341.333" r="0.507"/>
				<path fill="#FFFFFF" d="M104.092,338.957c-0.252-0.121-0.557-0.016-0.678,0.238l0,0c-0.119,0.252-0.016,0.555,0.238,0.676
					l6.502,1.918c0.25,0.123,0.553,0.016,0.674-0.236l0,0c0.123-0.254,0.016-0.555-0.236-0.676L104.092,338.957z"/>
				<path fill="#FFFFFF" d="M108.426,340.002c0.18-0.066,0.248-0.332,0.15-0.596l0,0c-0.098-0.262-0.322-0.422-0.5-0.355
					l-3.904,2.602c-0.18,0.064-0.246,0.332-0.148,0.594l0,0c0.096,0.264,0.32,0.422,0.498,0.355L108.426,340.002z"/>
			</g>
		</g>
		<path fill="#BD223B" d="M93.648,371.957c-1.217-0.656-2.453-1.141-3.648-1.461c-0.846,0.598-1.738,1.199-2.748,1.84
			c-4.438,2.816,3.02,5.389,3.65,5.414c2.592,0.098,5.338-0.342,8.133-1.129C97.877,374.904,96.012,373.229,93.648,371.957z"/>
	</g>
	<g>
		<g>
			<path fill="#FFFFFF" d="M80.018,346.701c0.258-1.568,0.417-3.406,0.471-5.65c0.002-0.078,0.012-0.164,0.014-0.246
				c-0.191,1.002-0.307,1.984-0.328,2.902C80.147,344.801,80.092,345.781,80.018,346.701z"/>
			<path fill="#FFFFFF" d="M89.844,361.52c-0.373,0.24-7.295,3.322-10.409,4.506c-6.612,2.514-13.709,4.453-19.603,3.529
				c-0.441-0.07-4.478-2.061-4.416-3.449c0.002-0.059-0.001-0.152-0.007-0.273c-0.503,0.834-0.292,2.562-0.308,2.928
				c-0.062,1.389,3.975,3.379,4.416,3.449c5.894,0.924,12.99-1.016,19.603-3.529c3.114-1.184,10.036-4.266,10.409-4.506
				c0.799-0.512,1.16-2.109,1.123-3.914C90.467,360.842,90.199,361.293,89.844,361.52z"/>
		</g>
		<path fill="#EF4764" d="M59.83,369.572c5.894,0.924,12.99-1.016,19.604-3.527c3.113-1.186,10.033-4.268,10.408-4.506
			c0.361-0.232,0.633-0.684,0.82-1.277c-0.008-2.361,0.16-6.725-1.525-8.539c-2.619-6.34-1.098-13.844,0.91-22.707
			c0.117-0.51-0.268-2.174-0.703-1.91c-2.924,1.758-4.611,1.924-5.795,2.34c-0.66,0.232-6.688-2.104-7.16-1.396
			c-1.434,2.145,0.291,9.426,0.223,12.295c-0.257,10.732-2.686,12.357-8.217,16.545c-4.607,3.486-7.025,5.119-11.381,7.209
			C52.547,366.244,59.242,369.48,59.83,369.572z"/>
		<path fill="#BD223B" d="M62.285,364.42c4.145,2.281,5.845-3.516,9.893-6.578c5.532-4.188,8.051-6.039,8.309-16.771
			c0.068-2.871-0.007-8.232,1.428-10.379c0.715-1.07,1.508-1.23,2.809-1.59c-0.656-4.057-5.17-3.498-7.486-4.012
			c-0.568-0.127-1.144,0.402-1.199,0.943c-0.68,6.699,4.159,9.221-0.102,23.148c-1.115,3.645-4.598,6.344-8.268,9.014
			C64.82,360.268,59.254,362.752,62.285,364.42z"/>
		<g>
			<g>
				<circle fill="#FFFFFF" cx="66.555" cy="365.113" r="0.86"/>
				<circle fill="#57110D" cx="66.555" cy="365.114" r="0.477"/>
				<path fill="#FFFFFF" d="M64.361,359.584c-0.109-0.24-0.392-0.35-0.633-0.242l0,0c-0.24,0.107-0.348,0.391-0.24,0.633l2.38,4.939
					c0.106,0.24,0.39,0.348,0.63,0.24l0,0c0.241-0.107,0.348-0.389,0.24-0.631L64.361,359.584z"/>
				<path fill="#FFFFFF" d="M63.051,360.207c-0.201-0.104-0.464,0.002-0.584,0.236l0,0c-0.12,0.234-0.056,0.51,0.146,0.615
					l4.263,2.018c0.201,0.105,0.462-0.002,0.583-0.236l0,0c0.121-0.234,0.055-0.51-0.147-0.611L63.051,360.207z"/>
			</g>
			<g>
				<circle fill="#FFFFFF" cx="69.488" cy="362.928" r="0.86"/>
				<circle fill="#57110D" cx="69.487" cy="362.927" r="0.478"/>
				<path fill="#FFFFFF" d="M66.815,357.662c-0.108-0.24-0.392-0.352-0.632-0.242l0,0c-0.24,0.109-0.348,0.391-0.24,0.633
					l2.857,4.676c0.106,0.242,0.389,0.348,0.631,0.24l0,0c0.24-0.107,0.348-0.391,0.239-0.631L66.815,357.662z"/>
				<path fill="#FFFFFF" d="M65.742,358.377c-0.168-0.102-0.417-0.006-0.555,0.221l0,0c-0.137,0.223-0.115,0.49,0.054,0.594
					l3.812,1.529c0.166,0.104,0.414,0.004,0.553-0.221l0,0c0.139-0.225,0.115-0.488-0.053-0.592L65.742,358.377z"/>
			</g>
			<g>
				<circle fill="#FFFFFF" cx="72.094" cy="360.381" r="0.859"/>
				<circle fill="#57110D" cx="72.094" cy="360.381" r="0.478"/>
				<path fill="#FFFFFF" d="M69.812,355.596c-0.108-0.24-0.392-0.348-0.633-0.24l0,0c-0.239,0.107-0.347,0.389-0.239,0.631
					l2.467,4.195c0.107,0.24,0.39,0.348,0.631,0.24l0,0c0.24-0.107,0.348-0.389,0.24-0.631L69.812,355.596z"/>
				<path fill="#FFFFFF" d="M71.74,358.281c0.184,0.07,0.41-0.072,0.506-0.318l0,0c0.094-0.244,0.023-0.502-0.16-0.572l-3.551-0.801
					c-0.182-0.072-0.408,0.07-0.504,0.318l0,0c-0.096,0.246-0.023,0.5,0.158,0.572L71.74,358.281z"/>
			</g>
			<g>
				<circle fill="#FFFFFF" cx="75.046" cy="357.901" r="0.859"/>
				<circle fill="#57110D" cx="75.046" cy="357.901" r="0.478"/>
				<path fill="#FFFFFF" d="M72.297,353.279c-0.108-0.24-0.391-0.35-0.633-0.242l0,0c-0.238,0.109-0.348,0.391-0.239,0.633
					l2.935,4.033c0.105,0.24,0.389,0.348,0.63,0.238l0,0c0.241-0.107,0.349-0.389,0.239-0.631L72.297,353.279z"/>
				<path fill="#FFFFFF" d="M74.816,355.775c0.209,0.064,0.441-0.084,0.523-0.334l0,0c0.08-0.252-0.021-0.508-0.228-0.576
					l-4.137-0.254c-0.206-0.068-0.438,0.082-0.521,0.334l0,0c-0.082,0.25,0.021,0.508,0.227,0.574L74.816,355.775z"/>
			</g>
			<g>
				<path fill="#FFFFFF" d="M78.59,354.844c-0.343-0.328-0.888-0.316-1.217,0.027c-0.328,0.344-0.315,0.889,0.029,1.217
					c0.34,0.326,0.885,0.314,1.214-0.027C78.943,355.717,78.932,355.174,78.59,354.844z"/>
				<circle fill="#57110D" cx="77.995" cy="355.466" r="0.477"/>
				<path fill="#FFFFFF" d="M74.54,350.807c-0.108-0.242-0.392-0.352-0.632-0.242l0,0c-0.24,0.107-0.348,0.391-0.24,0.631
					l3.641,4.07c0.105,0.24,0.389,0.348,0.629,0.24l0,0c0.242-0.105,0.35-0.389,0.24-0.631L74.54,350.807z"/>
				<path fill="#FFFFFF" d="M76.99,353.285c0.158,0.098,0.399-0.002,0.539-0.229l0,0c0.139-0.223,0.124-0.484-0.035-0.582
					l-3.996-0.531c-0.158-0.098-0.398,0.004-0.538,0.229l0,0c-0.14,0.223-0.124,0.484,0.035,0.582L76.99,353.285z"/>
			</g>
			<g>
				<circle fill="#FFFFFF" cx="80.231" cy="351.609" r="0.86"/>
				<circle fill="#57110D" cx="80.23" cy="351.609" r="0.478"/>
				<path fill="#FFFFFF" d="M76.1,347.104c-0.107-0.242-0.391-0.352-0.631-0.242l0,0c-0.24,0.107-0.348,0.389-0.24,0.631
					l4.315,3.918c0.106,0.24,0.39,0.348,0.63,0.24l0,0c0.242-0.107,0.348-0.391,0.24-0.631L76.1,347.104z"/>
				<path fill="#FFFFFF" d="M79.311,349.188c0.165,0.074,0.389-0.057,0.5-0.297l0,0c0.111-0.238,0.067-0.494-0.097-0.57
					l-4.311,0.576c-0.162-0.078-0.386,0.055-0.497,0.295l0,0c-0.111,0.238-0.068,0.494,0.096,0.57L79.311,349.188z"/>
			</g>
			<g>
				<circle fill="#FFFFFF" cx="81.494" cy="347.006" r="0.86"/>
				<path fill="#57110D" d="M81.824,346.66c-0.191-0.184-0.494-0.176-0.676,0.014c-0.184,0.193-0.176,0.494,0.016,0.676
					c0.189,0.184,0.49,0.178,0.674-0.014C82.02,347.146,82.014,346.844,81.824,346.66z"/>
				<path fill="#FFFFFF" d="M76.786,343.182c-0.194-0.178-0.499-0.166-0.677,0.031l0,0c-0.176,0.193-0.162,0.496,0.033,0.676
					l4.732,3.164c0.193,0.178,0.496,0.164,0.674-0.031l0,0c0.178-0.195,0.164-0.496-0.031-0.674L76.786,343.182z"/>
				<path fill="#FFFFFF" d="M80.062,345.252c0.183,0.01,0.345-0.191,0.362-0.455l0,0c0.018-0.262-0.117-0.486-0.299-0.498
					l-3.934,0.59c-0.181-0.012-0.341,0.193-0.359,0.457l0,0c-0.018,0.262,0.115,0.484,0.297,0.496L80.062,345.252z"/>
			</g>
			<g>
				<path fill="#FFFFFF" d="M82.768,341.898c-0.342-0.328-0.889-0.316-1.215,0.025c-0.33,0.344-0.318,0.887,0.025,1.217
					c0.342,0.326,0.887,0.314,1.215-0.027S83.109,342.227,82.768,341.898z"/>
				<path fill="#57110D" d="M82.504,342.174c-0.191-0.182-0.494-0.176-0.676,0.014c-0.182,0.193-0.176,0.496,0.014,0.676
					c0.191,0.184,0.494,0.178,0.678-0.014C82.699,342.658,82.693,342.355,82.504,342.174z"/>
				<path fill="#FFFFFF" d="M76.826,339.391c-0.217-0.148-0.516-0.094-0.666,0.125l0,0c-0.146,0.217-0.092,0.514,0.127,0.664
					l5.297,2.695c0.217,0.15,0.514,0.094,0.662-0.125l0,0c0.15-0.217,0.094-0.514-0.125-0.664L76.826,339.391z"/>
				<path fill="#FFFFFF" d="M80.244,341.148c0.17-0.012,0.293-0.234,0.271-0.5l0,0c-0.02-0.262-0.172-0.465-0.34-0.453l-3.711,1.049
					c-0.17,0.01,0,0-0.27,0.498l0,0c0.018,0.264,0.17,0.463,0.34,0.451L80.244,341.148z"/>
			</g>
			<g>
				<circle fill="#FFFFFF" cx="82.405" cy="337.682" r="0.86"/>
				<circle fill="#57110D" cx="82.404" cy="337.682" r="0.478"/>
				<path fill="#FFFFFF" d="M76.478,334.723c-0.222-0.139-0.519-0.074-0.661,0.148l0,0c-0.139,0.223-0.074,0.518,0.148,0.66
					l5.873,2.518c0.221,0.141,0.518,0.074,0.658-0.148l0,0c0.143-0.223,0.076-0.516-0.148-0.658L76.478,334.723z"/>
				<path fill="#FFFFFF" d="M80.419,336.184c0.175-0.043,0.269-0.285,0.206-0.541l0,0c-0.062-0.258-0.254-0.432-0.429-0.389
					l-3.942,2.002c-0.176,0.041-0.267,0.283-0.205,0.539l0,0c0.062,0.258,0.252,0.432,0.428,0.389L80.419,336.184z"/>
			</g>
		</g>
		<path fill="#BD223B" d="M67.258,369.465c-1.046-2.039-3.16-4.117-5.965-5.627c-0.655-0.352-1.314-0.654-1.971-0.908
			c-0.723,0.383-1.474,0.768-2.309,1.168c-4.467,2.146,2.229,5.383,2.816,5.475C62.153,369.936,64.664,369.852,67.258,369.465z"/>
	</g>
	<g>
		<path fill="#81344E" d="M75.066,27.569c2.689,0.456,5.383,0.218,8.088,0.517c5.846,0.646,11.27,2.506,16.455,5.282
			c6.934,3.71,13.596,8.42,18.691,14.438c0.268-0.394,0.525-0.798,0.754-1.231c4.898-9.297-0.748-20.247-14.455-27.067
			C90.891,12.686,82.67,12,74.915,25.189c-0.42,0.714-0.722,1.442-0.972,2.176C74.311,27.435,74.684,27.504,75.066,27.569z"/>
		<path fill="#37121B" d="M100.076,26.317c-17.26-9.34-32.133-4.817-38.808,5.188c-3.772,5.654-3.112,13.708-0.868,18.759
			c0.76-3.065,1.859-6.021,3.369-8.552c0.129-1.256,0.926-2.283,1.494-3.399c1.434-2.817,3.662-4.662,6.42-5.681
			c8.521-5.883,27.168-2.923,26.412,5.775c0.064,0.131,0.133,0.259,0.191,0.394c0.189,0.123,0.367,0.252,0.555,0.376
			c0.928-0.421,1.918,0.093,2.531,1.016c0.227,0.341,0.461,0.791,0.635,1.274c0.18,0.144,0.35,0.291,0.525,0.436
			c1.486-0.662,4.232,1.891,4.908,2.889c0.977,1.445,2.012,3.5,2.635,5.57c0.023,0.016,0.047,0.03,0.07,0.045
			c0.629-0.194,1.371-0.134,1.879,0.21c1.818,1.231,4.389,3.965,4.238,17.385c1.461-1.222,3.24-3.011,4.184-4.668
			C127.602,50.771,117.334,35.657,100.076,26.317z"/>
	</g>
	<g>
		<path fill="#BD223B" d="M107.881,56.756c0.041-0.646-0.164-0.77-0.76-0.808c-0.596-0.04-5.777-0.38-9.611-0.631
			c-3.832-0.252-7.596,0.099-9.268,0.803c-1.672,0.703-3.244,0.655-3.998,0.604c-0.756-0.049-2.318-0.206-3.885-1.122
			c-1.566-0.917-5.252-1.755-9.085-2.007c-3.834-0.252-9.017-0.592-9.61-0.631c-0.594-0.038-0.816,0.056-0.857,0.704
			c-0.043,0.649-0.439,3.388,0.424,4.257c0.865,0.871,1.046,1.423,1.212,2.193c0.165,0.771,0.824,7.266,8.58,8.047
			c7.757,0.779,10.093-5.086,10.491-6.198c0.399-1.113,1.838-1.56,2.488-1.571c0.645,0.095,2.014,0.728,2.264,1.883
			c0.25,1.154,1.799,7.274,9.592,7.515c7.791,0.24,9.291-6.114,9.557-6.856c0.268-0.741,0.52-1.267,1.49-2.016
			S107.84,57.406,107.881,56.756z M80.014,62.52c-1.52,4.129-5.955,4.814-8.545,4.645c-7.707-0.723-7.369-8.346-7.253-10.127
			c0.117-1.781,0.782-2.009,3.126-2.181c2.343-0.171,7.95,0.306,10.916,1.368C81.225,57.285,81.532,58.391,80.014,62.52z
			 M95.547,68.744c-2.592-0.171-6.902-1.43-7.867-5.721c-0.965-4.293-0.518-5.348,2.564-6.013c3.078-0.667,8.699-0.405,11,0.071
			c2.301,0.477,2.934,0.79,2.814,2.571C103.941,61.433,103.279,69.034,95.547,68.744z"/>
		<path opacity="0.5" fill="#CA922B" d="M80.014,62.52c-1.52,4.129-5.955,4.814-8.545,4.645c-7.707-0.723-7.369-8.346-7.253-10.127
			c0.117-1.781,0.782-2.009,3.126-2.181c2.343-0.171,7.95,0.306,10.916,1.368C81.225,57.285,81.532,58.391,80.014,62.52z"/>
		<path opacity="0.5" fill="#CA922B" d="M95.547,68.744c-2.592-0.171-6.902-1.43-7.867-5.721c-0.965-4.293-0.518-5.348,2.564-6.013
			c3.078-0.667,8.699-0.405,11,0.071c2.301,0.477,2.934,0.79,2.814,2.571C103.941,61.433,103.279,69.034,95.547,68.744z"/>
		<path fill="#FFFFFF" d="M75.871,57.042c2.021,0.464,3.559,1.291,3.67,0.806c0.11-0.486-1.438-1.253-3.462-1.718
			c-2.021-0.464-3.751-0.448-3.862,0.037C72.105,56.652,73.848,56.578,75.871,57.042z"/>
		<path fill="#FFFFFF" d="M99.656,58.603c2.023,0.464,3.559,1.291,3.668,0.806c0.111-0.487-1.438-1.254-3.459-1.719
			s-3.752-0.448-3.863,0.037C95.891,58.213,97.633,58.139,99.656,58.603z"/>
	</g>
	<g>
		<path fill="#37121B" d="M102.092,216.246c0.059-0.527,0.1-1.416-0.482-1.641c-0.084-0.033-0.205-0.006-0.266,0.061
			c-0.404,0.434-0.01,1.027-0.002,1.549C101.35,216.701,102.039,216.725,102.092,216.246z"/>
		<path fill="#37121B" d="M100.525,212.111c0.084,0.342,0.27,0.439,0.498,0.645c0.096,0.084,0.227,0.055,0.275-0.064
			c0.115-0.285,0.24-0.453,0.164-0.799c-0.084-0.383-0.15-0.777-0.27-1.152c-0.189-0.588-1.021-0.395-0.932,0.217
			C100.318,211.346,100.434,211.729,100.525,212.111z"/>
		<path fill="#37121B" d="M100.008,208.619c0.109,0.088,0.326,0.038,0.387-0.09c0.293-0.617,0.092-1.282-0.094-1.915
			c-0.193-0.669-1.172-0.443-1.053,0.244C99.361,207.508,99.473,208.192,100.008,208.619z"/>
		<path fill="#37121B" d="M98.164,202.57c0.127,0.514,0.262,1.001,0.756,1.28c0.125,0.07,0.273,0.037,0.355-0.083
			c0.279-0.407,0.25-0.853,0.152-1.312c-0.059-0.271-0.107-0.552-0.307-0.764c-0.07-0.073-0.154-0.125-0.25-0.154
			c-0.062-0.02-0.094-0.027-0.115-0.032c0.004-0.008-0.008-0.03-0.086-0.093c-0.07-0.055-0.205-0.023-0.242,0.056
			c-0.09,0.102-0.09,0.139-0.006,0.112c-0.088,0.049-0.16,0.117-0.215,0.203C98.061,202.018,98.102,202.318,98.164,202.57z"/>
		<path fill="#37121B" d="M97.342,199.14c0.178,0.373,0.797,0.23,0.793-0.184c-0.008-0.671-0.117-1.458-0.455-2.048
			c-0.303-0.528-1.145-0.225-1.004,0.381C96.818,197.906,97.068,198.567,97.342,199.14z"/>
		<path fill="#37121B" d="M96.234,194.589c0.104,0.019,0.23-0.06,0.281-0.147c0.256-0.451,0.049-0.971-0.057-1.441
			c-0.176-0.777-1.404-0.492-1.205,0.278C95.4,193.842,95.586,194.484,96.234,194.589z"/>
		<path fill="#37121B" d="M93.686,189.13c0.252,0.494,0.484,0.948,0.844,1.374c0.195,0.231,0.676,0.085,0.646-0.242
			c-0.07-0.82-0.264-2.128-1.16-2.403c-0.119-0.036-0.275,0.009-0.336,0.125C93.469,188.384,93.475,188.716,93.686,189.13z"/>
		<path fill="#37121B" d="M68.043,185.942c-0.148,0.509-0.342,1.377,0.192,1.699c0.077,0.046,0.201,0.04,0.272-0.015
			c0.473-0.357,0.186-1.011,0.268-1.525C68.852,185.62,68.178,185.479,68.043,185.942z"/>
		<path fill="#37121B" d="M68.873,190.284c-0.023-0.352-0.189-0.479-0.379-0.72c-0.08-0.101-0.215-0.093-0.283,0.015
			c-0.162,0.261-0.314,0.404-0.299,0.759c0.018,0.392,0.014,0.792,0.067,1.181c0.085,0.613,0.938,0.566,0.955-0.051
			C68.945,191.075,68.898,190.677,68.873,190.284z"/>
		<path fill="#37121B" d="M68.781,193.813c-0.092-0.105-0.314-0.093-0.396,0.022c-0.396,0.557-0.312,1.247-0.239,1.902
			c0.076,0.692,1.08,0.639,1.08-0.059C69.227,195.021,69.236,194.326,68.781,193.813z"/>
		<path fill="#37121B" d="M69.557,200.09c-0.037-0.528-0.086-1.031-0.523-1.392c-0.113-0.09-0.264-0.084-0.365,0.021
			c-0.346,0.353-0.395,0.796-0.377,1.266c0.012,0.277,0.012,0.562,0.172,0.806c0.057,0.085,0.129,0.149,0.219,0.195
			c0.059,0.029,0.088,0.042,0.108,0.051c-0.007,0.007,0.002,0.031,0.068,0.106c0.06,0.066,0.198,0.059,0.249-0.014
			c0.104-0.084,0.111-0.121,0.023-0.109c0.096-0.032,0.179-0.088,0.248-0.163C69.562,200.652,69.574,200.349,69.557,200.09z"/>
		<path fill="#37121B" d="M69.775,203.611c-0.111-0.398-0.745-0.364-0.812,0.043c-0.108,0.663-0.136,1.457,0.096,2.096
			c0.206,0.573,1.088,0.419,1.055-0.201C70.078,204.916,69.946,204.222,69.775,203.611z"/>
		<path fill="#37121B" d="M70.082,208.284c-0.1-0.036-0.238,0.019-0.302,0.097c-0.331,0.4-0.216,0.948-0.192,1.43
			c0.039,0.795,1.299,0.727,1.234-0.067C70.775,209.164,70.703,208.499,70.082,208.284z"/>
		<path fill="#37121B" d="M71.653,214.1c-0.163-0.529-0.313-1.018-0.595-1.498c-0.152-0.262-0.65-0.199-0.68,0.127
			c-0.07,0.82-0.106,2.141,0.73,2.566c0.111,0.057,0.273,0.039,0.352-0.064C71.738,214.873,71.79,214.545,71.653,214.1z"/>
		<path fill="#37121B" d="M56.508,218.707c-0.241-0.076-0.422-0.01-0.66,0.023c-0.872,0.121-0.412,1.674,0.504,1.195
			c0.258-0.137,0.445-0.299,0.512-0.592C56.928,219.055,56.781,218.793,56.508,218.707z"/>
		<path fill="#37121B" d="M60.105,218.188c-0.639-0.131-1.256,0.006-1.839,0.271c-0.447,0.205-0.21,0.902,0.243,0.896
			c0.531-0.008,1.07,0.068,1.596-0.043C60.662,219.193,60.668,218.301,60.105,218.188z"/>
		<path fill="#37121B" d="M63.699,217.764c-0.291-0.125-0.488-0.318-0.826-0.271c-0.357,0.049-0.606,0.264-0.621,0.633
			c-0.004,0.086,0.051,0.182,0.127,0.223c0.541,0.285,0.866-0.162,1.32-0.361C63.783,217.949,63.784,217.799,63.699,217.764z"/>
		<path fill="#37121B" d="M68.472,216.684c-0.741-0.281-1.77,0.045-2.344,0.561c-0.358,0.32-0.069,0.92,0.382,0.92
			c0.754,0,1.791-0.283,2.158-0.998C68.771,216.963,68.676,216.76,68.472,216.684z"/>
		<path fill="#37121B" d="M73.338,216.832l0.05,0.049c-0.022-0.156-0.181-0.273-0.319-0.318c-0.609-0.197-1.378-0.031-1.891,0.332
			c-0.25,0.178-0.293,0.697,0.098,0.75c0.628,0.088,1.318,0.016,1.902-0.246C73.422,217.289,73.436,217.035,73.338,216.832z"/>
		<path fill="#37121B" d="M78.693,216.611c-0.387-0.176-0.707-0.143-1.121-0.113c-0.413,0.029-0.797,0.018-1.197,0.141
			c-0.48,0.146-0.48,0.824,0,0.973c0.715,0.219,1.818,0.254,2.416-0.242C79.018,217.182,78.963,216.734,78.693,216.611z"/>
		<path fill="#37121B" d="M84.967,216.543c-0.615-0.748-1.827-0.705-2.635-0.309c-0.39,0.189-0.39,0.84,0,1.031
			c0.808,0.395,2.02,0.438,2.635-0.309C85.076,216.824,85.076,216.676,84.967,216.543z"/>
		<path fill="#37121B" d="M91.068,216.531c-0.549-0.615-1.947-0.533-2.605-0.145c-0.459,0.271-0.459,0.953,0,1.225
			c0.658,0.391,2.057,0.471,2.605-0.143C91.32,217.188,91.32,216.812,91.068,216.531z"/>
		<path fill="#37121B" d="M96.051,217.092c-0.576-0.443-1.162-0.393-1.854-0.449c-0.402-0.035-0.965,0.24-0.902,0.701
			c0.066,0.49,0.682,0.639,1.09,0.674c0.639,0.053,1.143,0.039,1.666-0.359C96.26,217.498,96.258,217.252,96.051,217.092z"/>
		<path fill="#37121B" d="M100.879,217.09c-0.576-0.111-1.096-0.148-1.645,0.084c-0.438,0.184-0.438,0.967,0,1.152
			c0.549,0.23,1.068,0.195,1.645,0.084C101.535,218.283,101.535,217.217,100.879,217.09z"/>
		<path fill="#37121B" d="M59.836,189.077c-1.121,1.062-1.768,2.535-2.565,3.84c-1.038,1.698-3.969,4.164-5.519,5.403
			c-0.604,0.483-0.152,0.874-0.019,1.636c0.147,0.834,0.034,1.996,0.648,1.37c1.215-1.238,5.093-5.024,5.929-6.537
			c0.89-1.607,1.924-3.478,2.23-5.302C60.609,189.083,60.162,188.769,59.836,189.077z"/>
		<path fill="#37121B" d="M97.312,198.665c-2.277-1.342-10.545-4.049-12.834-5.483c-1.943-1.217-3.753-3.187-5.895-3.953
			c-0.208-0.074-0.397,0.151-0.346,0.347c0.621,2.344,3.188,4.257,5.035,5.669c2.055,1.568,10.848,5.477,13.506,5.387
			C97.814,200.596,98.236,199.21,97.312,198.665z"/>
	</g>
</g>
</svg>
