<?xml version="1.0" encoding="utf-8"?>
<!-- Generator: Adobe Illustrator 15.1.0, SVG Export Plug-In . SVG Version: 6.00 Build 0)  -->
<!DOCTYPE svg PUBLIC "-//W3C//DTD SVG 1.1//EN" "http://www.w3.org/Graphics/SVG/1.1/DTD/svg11.dtd">
<svg version="1.1" id="Layer_1" xmlns="http://www.w3.org/2000/svg" xmlns:xlink="http://www.w3.org/1999/xlink" x="0px" y="0px"
	 width="65.809px" height="89.425px" viewBox="0 0 65.809 89.425" enable-background="new 0 0 65.809 89.425" xml:space="preserve">
<g id="XMLID_8146_">
	<path id="XMLID_8147_" fill="#F4F2EF" d="M46.742,79.558h-22.41c-1.571,0-2.846-1.102-2.846-2.46l-4.1-51.43h36.301l-4.1,51.43
		C49.588,78.457,48.314,79.558,46.742,79.558z"/>
	<path id="XMLID_8148_" fill="#ECE8E2" d="M46.681,79.558H35.537v-53.89h18.15l-4.1,51.376
		C49.588,78.433,48.286,79.558,46.681,79.558z"/>
	<path id="XMLID_8149_" fill="#5A433A" d="M53.338,24.932H17.563l2.029-8.691c0.359-2.614,2.398-4.546,4.796-4.546h22.123
		c2.398,0,4.437,1.932,4.797,4.546L53.338,24.932z"/>
	<path id="XMLID_8150_" fill="#4D382E" d="M35.45,24.932h17.888l-2.029-8.691c-0.36-2.614-2.398-4.546-4.797-4.546H35.45V24.932z"/>
	<path id="XMLID_8151_" fill="#5A433A" d="M52.409,28.298H18.665c-1.547,0-2.802-1.254-2.802-2.802V24.5
		c0-1.614,1.32-2.934,2.935-2.934h33.479c1.613,0,2.934,1.32,2.934,2.934v0.996C55.211,27.044,53.957,28.298,52.409,28.298z"/>
	<path id="XMLID_8152_" fill="#4D382E" d="M35.537,28.298h17.445c1.231,0,2.229-1.1,2.229-2.457v-1.702
		c0-1.415-1.05-2.573-2.334-2.573h-17.34V28.298z"/>
	<polygon id="XMLID_8153_" fill="#5A433A" points="18.195,35.806 52.879,35.806 50.387,67.042 20.653,67.042 	"/>
	<polygon id="XMLID_8154_" fill="#4D382E" points="35.537,67.042 50.387,67.042 52.879,35.806 35.537,35.806 	"/>
	<ellipse id="XMLID_8155_" fill="#5A433A" cx="35.537" cy="46.872" rx="13.701" ry="15.104"/>
	<path id="XMLID_8156_" fill="#4D382E" d="M35.555,61.976c7.566,0,13.7-6.762,13.7-15.104s-6.134-15.104-13.7-15.104V61.976z"/>
</g>
</svg>
