<?xml version="1.0" encoding="utf-8"?>
<!-- Generator: Adobe Illustrator 15.1.0, SVG Export Plug-In . SVG Version: 6.00 Build 0)  -->
<!DOCTYPE svg PUBLIC "-//W3C//DTD SVG 1.1//EN" "http://www.w3.org/Graphics/SVG/1.1/DTD/svg11.dtd">
<svg version="1.1" id="Layer_1" xmlns="http://www.w3.org/2000/svg" xmlns:xlink="http://www.w3.org/1999/xlink" x="0px" y="0px"
	 width="66.809px" height="87.234px" viewBox="0 0 66.809 87.234" enable-background="new 0 0 66.809 87.234" xml:space="preserve">
<g id="XMLID_5796_">
	<path id="XMLID_5799_" fill="#DEDEDD" d="M47.095,15.193H20.36c-1.665,0-3.291,2.925-3.291,3.647v2.432v49.444v2.532v0.081
		c0,0.98,2.16,3.922,3.291,3.922h26.735c0.926,0,3.291-3.146,3.291-3.922v-0.081v-2.532V21.272V18.84
		C50.386,17.928,49.031,15.193,47.095,15.193z"/>
	<path id="XMLID_5798_" fill="#D1D2D2" d="M33.728,77.251h13.367c0.926,0,3.291-3.146,3.291-3.922v-0.081v-2.532V21.272V18.84
		c0-0.912-1.354-3.647-3.291-3.647H33.728V77.251z"/>
	<rect id="XMLID_5797_" x="17.069" y="19.418" fill="#3A5094" width="33.316" height="53.466"/>
	<rect id="XMLID_8112_" x="33.728" y="19.418" fill="#2D4078" width="16.658" height="53.466"/>
	<path id="XMLID_8113_" fill="#D1D2D2" d="M47.965,15.534H19.746c-0.503,0-0.916-0.413-0.916-0.916v-0.553
		c0-0.504,0.412-0.916,0.916-0.916h28.219c0.503,0,0.915,0.412,0.915,0.916v0.553C48.88,15.121,48.468,15.534,47.965,15.534z"/>
	<path id="XMLID_8114_" fill="#C2C1C1" d="M33.728,15.534h14.006c0.631,0,1.146-0.537,1.146-1.192l0,0
		c0-0.656-0.516-1.192-1.146-1.192H33.728V15.534z"/>
</g>
</svg>
